<svg width="348" height="377" fill="none" xmlns="http://www.w3.org/2000/svg"><path d="M54.454 27.07v0c-.702-.079-5.66-3.42-5.66-4.127V9.53c-.907-8.599-23.4-8.109-34.533-6.789C2.033 5.005 1.24 31.218 2.372 44.042v0c0 9.399 14.396 6.788 23.796 6.788h28.286m0-23.76v23.76m0-23.76c.72.08 3.76.137 8.492.176M175.6 27.07v0c0-10.935 8.866-19.8 19.801-19.8h11.117c8.828 0 17.295 6.11 15.787 14.809a21.942 21.942 0 01-.356 1.671c-.278 1.088-.494 2.197-.494 3.32v0m-45.855 0h7.36m-7.36 0c-28.984.142-80.257.325-105.862.218m151.717-.218h8.493a2.263 2.263 0 002.263-2.263v19.801c0 2.075-1.019 6.223-5.095 6.223h-5.661m0-23.76h-6.793M54.454 50.83h8.492m0-23.584V50.83m0-23.584l1.132.01M62.946 50.83h114.92M77.665 44.042h71.329m-138.696.565c6.038.755 24.909 1.697 24.909 1.697M13.694 10.097h21.513M177.866 50.83v40.168m0-40.168h5.661m-5.661 40.168h-57.743m57.743 0h5.661m-85.482 20.367V96.659a5.661 5.661 0 015.661-5.661v0m-5.661 20.367h-13.02c-1.51-.189-4.416.792-3.964 6.223.648 10.676 2.767 30.176 6.5 34.365.997 1.118 2.758.711 4.256.711v0m6.228-41.299h6.793m-1.132-20.367l1.132 20.367m-1.132-20.367h16.417m-15.285 20.367h6.793m8.492-20.367v20.367m0 0h-8.492m8.492 0h9.058m170.964 0h11.322c6.341-.453 7.549 3.583 7.36 5.657-.316 18.611-4.866 28.593-7.595 32.933-1.159 1.844-3.248 2.709-5.426 2.709v0m-5.661-41.299v-14.14a6.227 6.227 0 00-6.227-6.227v0m6.227 20.367h-6.227m0-20.367v20.367m0-20.367h-14.719m14.719 20.367h-14.719m0-20.367v20.367m0-20.367h-57.743m57.743 20.367h-10.19M221.456 50.83v40.168m0-40.168h-6.793m6.793 40.168h-6.227m-114.354 67.889h198.138m6.793-6.223h-5.661m5.661 0l39.937 199.553c.171.855.257 1.724.257 2.595v0c0 3.508-1.394 6.872-3.875 9.352l-3.488 3.485A25.117 25.117 0 01320.882 375H89.416a50.262 50.262 0 01-35.528-14.709v0a4.496 4.496 0 01-1.232-4.053L92.95 152.664m212.856 0l3.963-30.55m-216.82 30.55h-1.132m1.133 0h5.095m1.132 14.143h19.814m-23.777 10.749h18.682m166.435-10.183h18.682m-13.587 10.749h16.984M60.681 349.542h42.459m-42.459 9.617l104.73 3.395m-96.238 3.394l56.611 1.697m168.7-18.669l44.157.566m-106.429 13.012l104.73-3.395m-63.97 8.486l56.611-1.697M88.987 122.68l2.83 29.984m4.53-18.104l1.698 18.104m0 0h202.1m-189.08-52.614l.566 11.315m18.682-11.88l-1.132 11.88m0 0h139.828m-.566-12.447l.566 12.447m18.682-10.749v11.314m14.153 22.064l-1.699 18.67M186 16v0a17.076 17.076 0 00-3.039 11.07v0m0 0h31.702M213.5 14.5v0a7.58 7.58 0 011.603 5.677L215 21l-.337 6.07m0 41.864V50.83m0 0h-31.136m.566 18.104l-.566-18.104m.566 29.419l-.566 10.749m0 0h31.702m-.566-11.315l.566 11.315M65.776 28.201h3.294c.067 0 .13-.024.182-.067v0c.215-.182.057-.533-.223-.492l-1.629.238c-.474.07-.507.741-.043.857v0c.077.02.147.06.203.115l.141.141c.218.217.34.512.34.819v.115c0 1.488-1.984 1.994-2.697.688l-.601-1.102a1.76 1.76 0 01-.153-.38l-.512-1.878m0 0c.721.006 1.477.01 2.265.015m0 0l3.396.017m-3.396-.017l3.396.017m-20.946 9.966v7.354M27 15.5l-1.417 2.517 2.83-2.828-2.83-.566M22 13.492c3.152.136 5.015.089 7.985.016.43-.01.838.2 1.077.56v0c.404.606.21 1.428-.38 1.856-1.312.954-2.835 2.416-2.835 3.79 0 .328-.132.535-.356.646-3.232 1.61-1.88-6.872-5.491-6.868v0z" stroke="#444A4A" stroke-width="3"/><path d="M102.969 253.438c-.469-2.532-.399-5.18.211-7.946.656-2.812 1.687-5.601 3.093-8.367 1.407-2.766 3.141-5.414 5.204-7.945a54.957 54.957 0 016.609-6.961c2.391-2.063 4.875-3.797 7.453-5.203 2.625-1.407 5.18-2.368 7.664-2.883.75 0 1.406.234 1.969.703a6.25 6.25 0 011.547 1.758c.422.703.726 1.453.914 2.25.234.797.351 1.523.351 2.179v6.821c0 .468-.187.773-.562.914-.375.094-.703.14-.984.14a6.23 6.23 0 01-1.196-.14c-.469-.094-.703-.399-.703-.914 0-.188-.023-.492-.07-.914a70.936 70.936 0 01-.141-1.407 218.73 218.73 0 00-.14-1.476v-.914a17.3 17.3 0 00-.071-.914c0-.563-.047-1.125-.14-1.688a7.52 7.52 0 00-.422-1.547c-.188-.468-.422-.703-.703-.703h-2.461l-.633.352c-.422.187-.914.422-1.477.703a29.7 29.7 0 00-1.687.914c-.563.281-.985.539-1.266.773-.14.094-.375.258-.703.493-.281.234-.586.468-.914.703-.328.234-.633.469-.914.703a8.413 8.413 0 01-.633.492c-2.531 2.438-4.734 4.711-6.609 6.82-1.875 2.063-3.446 4.219-4.711 6.469-1.266 2.25-2.227 4.688-2.883 7.313-.609 2.578-.914 5.648-.914 9.211 0 1.406.07 2.976.211 4.711.187 1.687.445 3.421.773 5.203a35.638 35.638 0 001.547 5.273c.656 1.688 1.477 3.188 2.461 4.5a11.57 11.57 0 003.586 3.164c1.406.797 3.07 1.195 4.992 1.195h1.547a335.987 335.987 0 005.555-1.898 51.364 51.364 0 004.359-1.828 24.689 24.689 0 003.516-1.969 20.358 20.358 0 003.094-2.672c1.031-1.031 2.085-2.273 3.164-3.726a189.133 189.133 0 003.656-5.133h.211a.618.618 0 01.281-.07c.844 0 1.266.421 1.266 1.265 0 1.078-.282 2.297-.844 3.656-.516 1.313-1.5 2.766-2.953 4.36-1.407 1.594-3.399 3.281-5.977 5.062-2.531 1.735-5.789 3.492-9.773 5.274-.75.328-1.407.609-1.969.844-.562.187-1.102.328-1.617.421a9.01 9.01 0 01-1.617.141c-.516.047-1.102.07-1.758.07-2.438 0-4.57-.422-6.399-1.265a15.16 15.16 0 01-4.64-3.375 21.048 21.048 0 01-3.305-4.922 35.136 35.136 0 01-2.039-5.906 50.13 50.13 0 01-1.125-6.258 66.767 66.767 0 01-.281-5.906zm42.469 22.078c0-.047.023-.211.07-.493l.14-.843c.047-.328.094-.61.141-.844.047-.281.07-.469.07-.563v-.703l.985-4.429a93.343 93.343 0 012.461-4.852c.89-1.547 1.898-2.906 3.023-4.078a13.446 13.446 0 013.867-2.813c1.5-.703 3.305-1.054 5.414-1.054.422 0 .938.14 1.547.422.656.234 1.289.539 1.899.914.656.375 1.242.773 1.757 1.195.563.375.985.727 1.266 1.055 1.453-.235 2.508-.352 3.164-.352a24.1 24.1 0 011.688-.07 9.12 9.12 0 001.476-.281c.563-.141 1.406-.446 2.532-.915a8.212 8.212 0 012.32-.351c.328 0 .633.141.914.422.328.281.492.609.492.984 0 .469-.164.891-.492 1.266a2.104 2.104 0 01-1.195.703l-8.789 1.969-.774.351a17.624 17.624 0 01-1.687 7.242 20.562 20.562 0 01-4.289 6.047 20.796 20.796 0 01-6.188 4.149 18.707 18.707 0 01-7.312 1.476c-.188 0-.493-.023-.915-.07h-.843c-1.032-.422-1.758-1.195-2.18-2.32-.375-1.125-.562-2.18-.562-3.164zm4.5 1.406c.046.234.234.351.562.351h.703c1.688 0 3.422-.421 5.203-1.265a19.189 19.189 0 004.782-3.375 17.93 17.93 0 003.515-4.711c.938-1.781 1.406-3.563 1.406-5.344-1.5 0-3-.117-4.5-.351a23.577 23.577 0 00-4.359-.422h-.07l-5.836 6.187c-.328.328-.586.774-.774 1.336a10.532 10.532 0 00-.422 1.828 27.975 27.975 0 00-.21 1.969 24.894 24.894 0 00-.071 1.758v.984c0 .516.024.867.071 1.055zm27.492 26.719v-2.743l2.461-22.007c.328-1.735.609-3.094.843-4.079.235-1.031.422-1.804.563-2.32.187-.562.375-.937.562-1.125l5.133-16.453c.188-.562.539-1.359 1.055-2.391a29.843 29.843 0 011.758-3.164c.703-1.031 1.453-1.898 2.25-2.601.797-.75 1.593-1.125 2.39-1.125.328 0 .61.117.844.351.234.235.422.516.563.844.187.328.304.68.351 1.055.094.375.141.679.141.914 0 2.156-.305 4.359-.914 6.609a44.896 44.896 0 01-2.25 6.68 39.654 39.654 0 01-3.375 6.187c-1.313 1.969-2.696 3.704-4.149 5.204l-1.054 3.796A51.748 51.748 0 00200 274.672a95.43 95.43 0 0014.414-6.047h.352c.422 0 .703.164.843.492.188.281.282.586.282.914 0 .375-.071.703-.211.985-.141.281-.446.539-.914.773a58.783 58.783 0 01-11.883 5.625 82.85 82.85 0 01-12.797 3.305 270.95 270.95 0 002.109 2.32 9.023 9.023 0 011.336 1.828c.375.656.633 1.406.774 2.25.187.844.281 1.992.281 3.445 0 3.657-.867 6.844-2.602 9.563-1.687 2.766-3.914 5.32-6.679 7.664-.657.516-1.477 1.055-2.461 1.617-.938.563-1.852.844-2.742.844-.797 0-1.383-.258-1.758-.773-.375-.516-.633-1.125-.774-1.829a7.753 7.753 0 01-.14-2.109v-1.898zm5.765-19.899l-.633 4.922a186.694 186.694 0 00-.632 5.625 233.415 233.415 0 00-.492 5.766 74.198 74.198 0 00-.211 5.414c1.265 0 2.484-.563 3.656-1.688 1.219-1.078 2.297-2.414 3.234-4.008a28.036 28.036 0 002.321-4.781c.609-1.64.937-3 .984-4.078.094-1.312 0-2.437-.281-3.375a5.762 5.762 0 00-1.196-2.32c-.562-.61-1.289-1.125-2.179-1.547a31.748 31.748 0 00-3.164-1.266h-.352c-.328 0-.562.141-.703.422a5.273 5.273 0 00-.352.914zm8.649-30.164c-.047 0-.141.188-.282.563-.14.328-.328.703-.562 1.125a36.56 36.56 0 00-.562 1.336c-.141.468-.258.82-.352 1.054a26.04 26.04 0 00-.492 1.477 77.563 77.563 0 00-.563 1.758c-.14.562-.281 1.078-.422 1.547-.14.421-.211.656-.211.703v.421a54.59 54.59 0 002.461-4.992c.75-1.781 1.172-3.562 1.266-5.343l-.281.351zm20.672 50.063v-2.743l2.461-22.007c.328-1.735.609-3.094.843-4.079.235-1.031.422-1.804.563-2.32.187-.562.375-.937.562-1.125l5.133-16.453c.188-.562.539-1.359 1.055-2.391a29.843 29.843 0 011.758-3.164c.703-1.031 1.453-1.898 2.25-2.601.797-.75 1.593-1.125 2.39-1.125.328 0 .61.117.844.351.234.235.422.516.563.844.187.328.304.68.351 1.055.094.375.141.679.141.914 0 2.156-.305 4.359-.914 6.609a44.896 44.896 0 01-2.25 6.68 39.654 39.654 0 01-3.375 6.187c-1.313 1.969-2.696 3.704-4.149 5.204l-1.054 3.796a51.748 51.748 0 0015.398-2.601 95.43 95.43 0 0014.414-6.047h.352c.421 0 .703.164.843.492.188.281.282.586.282.914 0 .375-.071.703-.211.985-.141.281-.446.539-.914.773a58.783 58.783 0 01-11.883 5.625 82.85 82.85 0 01-12.797 3.305 270.95 270.95 0 002.109 2.32 9.023 9.023 0 011.336 1.828c.375.656.633 1.406.774 2.25.187.844.281 1.992.281 3.445 0 3.657-.867 6.844-2.602 9.563-1.687 2.766-3.914 5.32-6.679 7.664-.657.516-1.477 1.055-2.461 1.617-.938.563-1.852.844-2.742.844-.797 0-1.383-.258-1.758-.773-.375-.516-.633-1.125-.774-1.829-.14-.656-.187-1.359-.14-2.109v-1.898zm5.765-19.899l-.633 4.922a186.694 186.694 0 00-.632 5.625 238.392 238.392 0 00-.493 5.766 74.765 74.765 0 00-.211 5.414c1.266 0 2.485-.563 3.657-1.688 1.219-1.078 2.297-2.414 3.234-4.008a27.956 27.956 0 002.32-4.781c.61-1.64.938-3 .985-4.078.094-1.312 0-2.437-.281-3.375a5.762 5.762 0 00-1.196-2.32c-.562-.61-1.289-1.125-2.179-1.547a31.748 31.748 0 00-3.164-1.266h-.352c-.328 0-.563.141-.703.422a5.273 5.273 0 00-.352.914zm8.649-30.164c-.047 0-.141.188-.282.563-.14.328-.328.703-.562 1.125a38.37 38.37 0 00-.563 1.336c-.14.468-.257.82-.351 1.054a26.04 26.04 0 00-.492 1.477 77.563 77.563 0 00-.563 1.758c-.14.562-.281 1.078-.422 1.547-.14.421-.211.656-.211.703v.421a54.59 54.59 0 002.461-4.992c.75-1.781 1.172-3.562 1.266-5.343l-.281.351zm22.711 16.453c.093-.281.234-.773.421-1.476.235-.75.446-1.547.633-2.391a28.73 28.73 0 00.563-2.391c.187-.796.328-1.335.422-1.617.281-1.125.609-2.344.984-3.656a16.224 16.224 0 011.688-3.656 8.78 8.78 0 012.671-2.742c1.125-.75 2.508-1.125 4.149-1.125.609 0 1.031.234 1.266.703.281.422.515.89.703 1.406v1.055c.047.468.07.797.07.984 0 2.016-.211 3.797-.633 5.344a13.947 13.947 0 01-1.828 4.289 19.847 19.847 0 01-2.953 3.726 84.132 84.132 0 01-4.008 3.586 19.75 19.75 0 00-.211.703c-.094.329-.14.563-.14.704v.14c0 .844.14 1.524.421 2.039.282.516.657.938 1.125 1.266a5.109 5.109 0 001.688.562c.656.047 1.359.071 2.109.071 2.203 0 4.313-.305 6.328-.914a16.324 16.324 0 005.555-2.953c.234-.235.516-.563.844-.985l1.125-1.406a7.18 7.18 0 011.195-1.195c.422-.375.867-.563 1.336-.563.469 0 .75.188.844.563.094.375.14.75.14 1.125 0 1.031-.328 2.015-.984 2.953-.609.89-1.43 1.711-2.461 2.461-.984.703-2.133 1.336-3.445 1.898a31.025 31.025 0 01-3.797 1.406 28.971 28.971 0 01-3.656.844c-1.125.188-2.086.281-2.883.281-2.484 0-4.57-.398-6.258-1.195-1.641-.844-2.766-2.508-3.375-4.992l.352-4.852zm10.054-13.851c-.937.843-1.687 1.617-2.25 2.32a9.698 9.698 0 00-1.265 2.109 22.359 22.359 0 00-.774 2.321c-.187.843-.398 1.828-.633 2.953.891-.703 1.618-1.406 2.18-2.11a10.53 10.53 0 001.477-2.179c.375-.75.656-1.547.843-2.391.188-.891.329-1.898.422-3.023zm15.961 13.851c.094-.281.235-.773.422-1.476.234-.75.445-1.547.633-2.391.234-.844.422-1.641.562-2.391.188-.796.329-1.335.422-1.617.282-1.125.61-2.344.985-3.656a16.265 16.265 0 011.687-3.656 8.782 8.782 0 012.672-2.742c1.125-.75 2.508-1.125 4.149-1.125.609 0 1.031.234 1.265.703.281.422.516.89.703 1.406v1.055c.047.468.071.797.071.984 0 2.016-.211 3.797-.633 5.344a13.97 13.97 0 01-1.828 4.289 19.853 19.853 0 01-2.954 3.726 83.59 83.59 0 01-4.007 3.586 19.75 19.75 0 00-.211.703c-.094.329-.141.563-.141.704v.14c0 .844.141 1.524.422 2.039.281.516.656.938 1.125 1.266a5.109 5.109 0 001.688.562c.656.047 1.359.071 2.109.071 2.203 0 4.312-.305 6.328-.914a16.333 16.333 0 005.555-2.953c.234-.235.515-.563.843-.985l1.125-1.406a7.185 7.185 0 011.196-1.195c.422-.375.867-.563 1.336-.563.468 0 .75.188.843.563.094.375.141.75.141 1.125 0 1.031-.328 2.015-.984 2.953-.61.89-1.43 1.711-2.461 2.461-.985.703-2.133 1.336-3.446 1.898a31.011 31.011 0 01-3.796 1.406 28.985 28.985 0 01-3.657.844c-1.125.188-2.086.281-2.882.281-2.485 0-4.571-.398-6.258-1.195-1.641-.844-2.766-2.508-3.375-4.992l.351-4.852zm10.055-13.851c-.938.843-1.688 1.617-2.25 2.32a9.663 9.663 0 00-1.266 2.109 22.365 22.365 0 00-.773 2.321c-.188.843-.399 1.828-.633 2.953.891-.703 1.617-1.406 2.18-2.11a10.524 10.524 0 001.476-2.179c.375-.75.657-1.547.844-2.391.188-.891.328-1.898.422-3.023z" fill="#444A4A"/></svg>