<svg width="370" height="267" fill="none" xmlns="http://www.w3.org/2000/svg"><path d="M256.835 202.785c-57.6 40-123.333 15.667-149-1.5h-.5c-.333-.667-1.1-2.4-1.5-4-.271-1.086-2.706-3.46-5.025-5.5m156.025 11c-22.5 14.5-83.3 34.2-146.5-3m146.5 3c-55.6 37.6-120.833 18-146.5 3.5v-6.5m146.5 3l-.5-.5m-146-2.5l-3.5-3-4-4.5-2.025-.5m195.525 4.5l-5.5 4c-2-5.2-24.166-1.167-35 1.5l.5.5m40-6c5.334.833 14.7 4.2 9.5 11-6.333 5-26.1 15.9-54.5 19.5-25.166 4.333-86.4 10.4-130 0-39-7-98.9-24.1-26.5-36.5l3-1m198.5 7c-9.6-2.8-21.333-8.167-26-10.5m-172.5 3.5a86.877 86.877 0 012.975 2.5m-2.975-2.5l-8.256-11.5m-5.744-8c-45.333 4.333-120 23-56 63 36.834 20.333 144 51.9 278 15.5 50.834-18.167 117.7-59.4-21.5-79m-200.5.5c-30-50.4-31.166-110-28-133.5m28 133.5l5.744 8m194.756-8.5l12.5-27.5m-12.5 27.5l-7 8.25m-21 24.75l14-16.5m0 0l7-8.25m13.5 19.25l-19.5-8-7.5 9 16-3 2 1h1.5l-11-4-2 1-1.5 2 3.5-.5m24.5-52.5c29.167-3.167 83.6-20.2 68-63-4.333-9.833-20.2-26.8-49-16m-19 79c1.53-2.63 2.985-5.855 4.361-9.5m14.639-69.5a378.35 378.35 0 01-1.349 10.5m1.349-10.5l-1.349 10.5m-13.29 59a120.608 120.608 0 001.639-4.647m-1.639 4.647c1.251-.223 2.765-.522 4.411-.884m-2.772-3.763l23-3.353c.334-1.5.4-3.6-2 0-1.941 2.912-11.269 5.583-18.228 7.116m-2.772-3.763c.362-1.092.717-2.211 1.066-3.353m0 0l1.706 7.116m-1.706-7.116c4.126-13.493 7.367-30.182 9.538-44m-9.538 44c8.284-.286 21.307-2.7 30.934-9.208m-21.396-34.792c25.684-5.6 33.299 6 33.896 12.5 0 6.012-1.816 10.957-4.767 15m-29.129-27.5c.383-2.433.732-4.778 1.047-7m0 0c5.283-1 16.149-2.7 17.349-1.5m-17.349 1.5v-37m28.082 71.5c3.006 3.167 5.895 8.9-6.606 6.5m6.606-6.5a27.58 27.58 0 01-2.733 3.19m-3.873 3.31a32.519 32.519 0 003.873-3.31m-3.873 3.31c-.37.27-.746.534-1.127.792m5-4.102c2.334 2.131 4.6 5.935-5 4.102m-20.349-78.792c-26.279 29.6-99.383 34-132.651 32.5-28.666 1.667-94-2.5-126-32.5m258.651 0c.503-3.008-.443-6.684-3.666-10.5m-254.985 10.5c-1.232-2.844-.566-6.562 3.576-10.5m6.424 61.5c8.834 37.5 35.3 113 70.5 115m174.485-176.5c-10.35-12.254-44.189-25.94-128.985-23.5-79.572 2.29-112.002 13.592-122.424 23.5m251.409 0c-1.474 1.915-3.663 4.128-6.609 6.5m-244.8-6.5c1.177 2.11 2.656 4.109 4.4 6m0 0c6.841-5.333 23.324-15.5 34.524-13.5m-34.524 13.5c7.022 7.618 18.34 13.496 31.524 17.981m52-38.981c8-1 25.4-2.8 31-2m11.5 0c10-.167 30.2 0 31 2m-125.5 38.981c28.205 9.594 64.956 12.809 86.5 13.02 41.769 0 72.388-6.658 93.5-14.785m-180 1.765c22.667-9.016 90.4-21.992 180-1.765m0 0c13.216-5.087 22.707-10.75 28.876-15.716m-26.876 145.25c13.834.083 42.5 1.65 46.5 7.25m-234.256-7c-16.748.333-51.144 3.1-54.744 11.5m23.5 26c13 8.833 48.6 26.1 87 24.5m86-2.5c17.334-2 54-7.5 62-13.5m-25.5-206.5c10.751 2 33.077 7.8 36.376 15m-4.376 32.5c.167 19.667-6.4 70.6-34 117m-14.5 15l8-8.5m-155.5 8l-16.5 4.5c-.5.667-1.1 1.9.5 1.5 1.6-.4 12-2.833 17-4l-1-2z" stroke="#444A4A" stroke-width="4"/></svg>