<svg width="290" height="429" fill="none" xmlns="http://www.w3.org/2000/svg"><path d="M13.082 54.453H3l6.722-10.76h15.796m-12.436 10.76L49.38 90.766l24.782 129.188a4.88 4.88 0 004.793 3.961v0M13.082 54.453l12.436-10.76m53.437 180.222v21.519m0-21.519l31.256-.236m-31.256 21.755v0a4.83 4.83 0 00-4.753 3.968L43.055 421.108c-.557 3.068 1.8 5.892 4.92 5.892h28.964m2.016-181.566h31.256m85.03 0h2.547a4.999 4.999 0 014.919 4.107l31.123 171.567c.556 3.068-1.801 5.892-4.92 5.892h-26.948m-6.721-181.566v-22.192m0 22.192h-26.887m26.887-22.192h1.214a5 5 0 004.917-4.094L227.16 79.187a2.285 2.285 0 012.247-1.87h9.676c17.364 0 31.441 14.076 31.441 31.44v0c0 3.229-.498 6.439-1.476 9.517l-18.427 58.017c-1.461 4.6 1.973 9.293 6.799 9.293v0a7.135 7.135 0 006.723-4.747l19.077-53.742A82.973 82.973 0 00288 99.341V89.225a44.864 44.864 0 00-5.906-22.25v0a44.86 44.86 0 00-38.953-22.61h-8.915m-38.985 178.877h-26.887m65.872-178.876l-86.037-16.14m86.037 16.14l-32.264-.113m-53.773-16.027l3.147-20.466A5 5 0 00146.394 2h-17.099a5 5 0 00-4.921 5.883l3.65 20.343m20.165 0h-20.165m0 0l-86.71 15.467m0 0l35.625.124m-35.625-.124H25.518m176.444.56l-33.608 178.989m33.608-178.989l-60.495-.21m26.887 179.199l-26.887.202m0 0V44.042m0 179.402l-31.256.235m31.256-179.637l-64.528-.225m0 0L110.21 223.68m0 21.755L76.939 427m33.272-181.566h27.895M76.939 427h61.167m0 0V245.434m0 181.566h63.856m-63.856-181.566h30.248m0 0L201.962 427M11.066 45.71h8.82l-8.82 7.398-4.033-.673 4.033-6.725zm0 0l1.747 1.52-.853 1.708-1.707 2.133 2.157.02 3.816-4.287m6.94 7.648c4.256 6.053 15.459 18.964 26.214 22.192m34.953 164.082h23.525m8.739 0h4.705m8.738 0h23.526m13.443 0h8.066m5.378 0h2.016M78.955 251.5l-4.033 23M48 422l6.5-30.5m-1 30.5l4.5-22.5m23-131l-4 21M54.5 90.766L60 120.5M74.922 193l4.033 21M221 79.5l-13.5 67m34-97.5c10.667.711 33.3 7.37 38.5 28.317m2 36.313L277 129M89.5 39.5l38.524-7.5M114 39.5l5.5-1m9.5-27c-.5-4-3-6.5 4-6m35.354 65.092c4.033 0 6.721 2.017 6.721 6.052s-1.344 7.397-6.049 7.397-7.394-.672-7.394-6.724c0-4.708 2.689-6.725 6.722-6.725z" stroke="#444A4A" stroke-width="3"/></svg>