<svg width="212" height="43" fill="none" xmlns="http://www.w3.org/2000/svg"><path d="M77.75 24.813l-6.094 3.968h-.187c-.209 0-.417-.052-.625-.156-.188-.104-.281-.281-.281-.531a.77.77 0 01.124-.438c.105-.146.23-.27.376-.375a9.76 9.76 0 01.906-.562c.437-.25.896-.521 1.375-.813a27.57 27.57 0 011.375-.843c.458-.25.77-.428.937-.532.084-.083.209-.177.375-.281.167-.125.313-.24.438-.344.146-.125.27-.229.375-.312.104-.084.156-.136.156-.157l-2.406-4.875a1.153 1.153 0 01-.188-.343v-.407c0-.625.302-.937.906-.937.084 0 .271.063.563.188.313.104.688.26 1.125.468.438.188.896.396 1.375.625.48.23.917.438 1.313.625.395.188.729.354 1 .5l.406.188 2.781-2.875c.063-.25.24-.552.531-.907.313-.354.636-.729.969-1.124.333-.396.625-.792.875-1.188.25-.417.375-.792.375-1.125v-.094l-2.156-5.031a5.356 5.356 0 01-.406-1.531A22.402 22.402 0 0184 3.937c0-.458.073-.916.219-1.374a4.31 4.31 0 01.625-1.282 3.556 3.556 0 011.031-.906C86.271.125 86.74 0 87.281 0c.563 0 1.021.167 1.375.5.375.313.667.708.875 1.188.23.479.386.99.469 1.53.083.522.125 1 .125 1.438 0 1.25-.146 2.448-.438 3.594a24.792 24.792 0 01-1.124 3.469v.437c.479.896.968 1.823 1.468 2.781.5.959.948 1.959 1.344 3a24.14 24.14 0 01.969 3.094c.25 1.021.375 2.052.375 3.094 0 .813-.136 1.573-.406 2.281a5.345 5.345 0 01-1.094 1.813c-.48.52-1.063.927-1.75 1.218-.667.292-1.417.438-2.25.438a8.84 8.84 0 01-2.688-.406 14.266 14.266 0 01-2.437-1.125 18.474 18.474 0 01-2.219-1.625 23.934 23.934 0 01-1.938-1.907h-.187zm1.563-1.063c0 .02.052.094.156.219.125.125.26.27.406.437.167.146.333.302.5.469.167.167.313.302.438.406.062.063.166.157.312.282.167.104.323.229.469.375.166.125.312.25.437.375a3 3 0 00.281.187c.126.063.313.167.563.313l.75.437a28.835 28.835 0 001.125.625c.48.208.917.344 1.313.406.416.042.833.063 1.25.063.624 0 1.156-.115 1.593-.344a3.39 3.39 0 001.125-.969c.292-.416.5-.885.625-1.406A6.224 6.224 0 0090.875 24c0-.583-.052-1.188-.156-1.813a8.254 8.254 0 00-.438-1.78l-2.719-6.532-2.468 3.469-5.781 6.281v.125zm-2.438-4.125c0 .042.01.125.031.25.042.104.073.177.094.219.083.146.188.343.313.593.145.25.28.49.406.72.146.208.26.405.344.593.104.167.166.25.187.25h.125c.063 0 .188-.083.375-.25.188-.188.385-.375.594-.563l.562-.562c.167-.188.26-.292.281-.313l-.156-.156-2.719-.781h-.437zm8.781-15.719c0 1.167.177 2.23.531 3.188a25.61 25.61 0 001.344 2.937c.104-.062.198-.187.281-.375.084-.208.157-.427.22-.656.062-.25.114-.48.156-.688a2.22 2.22 0 01.093-.374c0-.042.01-.146.031-.313.042-.167.073-.354.094-.563l.063-.656.094-.468v-.094c0-.084-.01-.344-.032-.782 0-.437-.031-.906-.094-1.406a5.111 5.111 0 00-.343-1.375c-.167-.416-.417-.625-.75-.625-.334 0-.615.063-.844.188-.23.125-.406.291-.531.5a3.221 3.221 0 00-.25.719 5.54 5.54 0 00-.063.843zm8.5 25.157v-.97c-.354-1.25-.406-2.478-.156-3.687a9.123 9.123 0 011.406-3.25A8.791 8.791 0 0198 18.72a8.244 8.244 0 013.469-1.219h.562c.459 0 .834.104 1.125.313.313.187.552.437.719.75.187.312.313.666.375 1.062.083.396.125.792.125 1.188 0 .541-.063 1.072-.187 1.593-.105.5-.23 1.01-.376 1.532l-.374 1.562a7.744 7.744 0 00-.157 1.594v.187c.021.042.042.167.063.375.041.188.073.302.094.344.041 0 .145.01.312.031h.906c.209-.02.417-.073.625-.156l5.938-2.75h.093a.52.52 0 01.126-.031c.208 0 .374.062.5.187a.628.628 0 01.218.5c0 .104-.01.209-.031.313 0 .083-.052.166-.156.25-.146.104-.417.25-.813.437-.375.188-.781.396-1.218.625-.438.23-.855.448-1.25.657a7.147 7.147 0 01-.813.406 8.447 8.447 0 01-.969.468c-.354.125-.718.25-1.094.375a11.3 11.3 0 01-1.124.313 5.631 5.631 0 01-.969.094c-.459 0-.834-.073-1.125-.219a1.72 1.72 0 01-.656-.625 3.112 3.112 0 01-.313-.938 5.32 5.32 0 010-1.156c-.417.334-.865.688-1.344 1.063a14.68 14.68 0 01-1.5 1.031 12.73 12.73 0 01-1.594.813 4.214 4.214 0 01-1.656.343c-.312 0-.594-.073-.844-.218-.25-.167-.427-.417-.53-.75zm1.688-.657c.479 0 1.01-.135 1.594-.406a11.62 11.62 0 001.718-1.063 13.714 13.714 0 001.532-1.312c.458-.48.812-.906 1.062-1.281a8.163 8.163 0 01.25-1.782 6.44 6.44 0 00.25-1.78.84.84 0 00-.031-.188v-.188c-.271-.229-.5-.364-.688-.406a3.586 3.586 0 00-.75-.063h-.281a.65.65 0 00-.25.032c-.125.104-.333.302-.625.593a35.2 35.2 0 00-.938.907c-.312.333-.614.646-.906.937-.27.292-.458.49-.562.594-.021 0-.063.042-.125.125a3.066 3.066 0 00-.219.25l-.188.313a1.708 1.708 0 00-.093.218l-.75 3.657v.843zm15.25.844c.062-.52.146-1.01.25-1.469.104-.479.218-.948.344-1.406.124-.458.26-.927.406-1.406a59.5 59.5 0 00.531-1.688v-.156c-.833.48-1.427.719-1.781.719-.334 0-.5-.125-.5-.375-.021-.25.083-.584.312-1a6.79 6.79 0 01.875-1.157 5.38 5.38 0 011.063-.843c.375-.209.666-.24.875-.094.25 0 .448.042.593.125.167.083.344.208.532.375.479-.375.927-.677 1.344-.906.416-.23.916-.344 1.5-.344.916 0 1.604.208 2.062.625.479.417.823 1.083 1.031 2l.969-.969c.292-.312.604-.573.938-.781.354-.23.729-.396 1.124-.5a4.459 4.459 0 011.344-.188c.417 0 .823.157 1.219.47.396.312.677.655.844 1.03v1.157c0 .708-.084 1.396-.25 2.062a7.957 7.957 0 00-.25 2c0 .292.031.594.093.907.084.291.313.437.688.437.5 0 .948-.104 1.344-.313a5.325 5.325 0 001.125-.75c.354-.312.666-.645.937-1 .292-.354.552-.677.782-.968.25-.313.479-.573.687-.782.208-.208.417-.312.625-.312.146 0 .302.063.469.188.187.104.281.24.281.406 0 .02-.01.052-.031.093v.094a7.238 7.238 0 01-.907 1.844 8.213 8.213 0 01-1.374 1.563 6.793 6.793 0 01-1.75 1.062 5.34 5.34 0 01-2 .375c-.667 0-1.23-.083-1.688-.25-.458-.188-.812-.604-1.062-1.25a5.41 5.41 0 00-.032-.406v-.407c0-.791.073-1.552.219-2.28.167-.73.25-1.47.25-2.22 0-.062-.01-.197-.031-.406v-.406c-.084-.104-.219-.156-.406-.156h-.469c-.438 0-.854.156-1.25.468a5.478 5.478 0 00-1.094 1.188c-.333.48-.635 1.02-.906 1.625a18.37 18.37 0 00-.657 1.781 23.138 23.138 0 00-.468 1.657 9.19 9.19 0 00-.188 1.25l-.344.312h-1.062c-.188 0-.292-.094-.312-.281v-.469c0-.5.031-1 .093-1.5.084-.52.167-1.031.25-1.531.104-.521.198-1.042.281-1.563.084-.52.136-1.031.157-1.531a39.092 39.092 0 01-.063-.531 2.218 2.218 0 00-.125-.563.947.947 0 00-.281-.406c-.125-.125-.302-.188-.531-.188-.334 0-.657.063-.969.188a3.67 3.67 0 00-.875.5 3.24 3.24 0 00-.687.719c-.188.27-.323.573-.407.906l-1.875 6.063-.281.312h-.187c-.126.02-.219.031-.282.031-.229 0-.468-.02-.718-.062-.23-.063-.344-.26-.344-.594v-.125zm21.312-1.031c0-.73.084-1.438.25-2.125.167-.688.396-1.365.688-2.032.187-.708.396-1.364.625-1.968.229-.625.458-1.157.687-1.594.25-.458.5-.813.75-1.063.25-.27.511-.406.782-.406.27 0 .468.084.593.25.146.146.219.354.219.625v.188l-1.531 3.656a2.987 2.987 0 01-.157.25c-.083.104-.124.177-.124.219v.125c-.042.104-.105.27-.188.5-.062.229-.135.479-.219.75-.083.25-.166.49-.25.718-.062.23-.104.386-.125.47-.041.103-.073.27-.094.5a7.11 7.11 0 00-.031.437c0 .041.011.125.031.25a.437.437 0 00.094.218c.792-.312 1.636-.78 2.532-1.406a23.273 23.273 0 002.624-2.156 20.253 20.253 0 002.219-2.469c.667-.875 1.157-1.718 1.469-2.531a2.21 2.21 0 01.312-.094c.167-.041.271-.062.313-.062h.156c.209 0 .386.093.531.281.167.188.25.375.25.563a.5.5 0 01-.031.125v.125c-.375.895-.698 1.75-.969 2.562a8.274 8.274 0 00-.406 2.625c0 .396.011.719.032.969.041.229.135.562.281 1 .021.104.062.156.125.156h.218c.626 0 1.25-.24 1.876-.719a8.458 8.458 0 001.687-1.75 10.24 10.24 0 001.25-2.218c.313-.771.469-1.448.469-2.032 0-.312-.032-.604-.094-.875a6.129 6.129 0 01-.062-.875c0-.27.072-.51.218-.718a.717.717 0 01.625-.313c.188 0 .365.063.531.188.167.104.323.229.469.375.167.145.334.28.5.406.167.125.354.218.563.281h1.812c.167 0 .302-.01.406-.031.105-.042.23-.094.376-.157.145-.083.343-.187.593-.312.271-.125.625-.292 1.063-.5.021-.02.062-.031.125-.031h.125c.187 0 .354.062.5.187a.624.624 0 01.218.5c0 .23-.062.417-.187.563-.104.125-.24.24-.406.343a7.408 7.408 0 01-.563.25 7.133 7.133 0 01-.531.157c-.479.187-.854.323-1.125.406-.25.063-.448.115-.594.156a4.026 4.026 0 00-.312.063h-.375c-.146 0-.354.01-.625.031-.25 0-.615.02-1.094.063a.482.482 0 00-.188.062.877.877 0 00-.124.094c-.126.937-.417 1.896-.876 2.875A10.932 10.932 0 01148.594 27a8.938 8.938 0 01-2.469 1.938c-.917.5-1.875.75-2.875.75-.208 0-.406-.084-.594-.25a4.867 4.867 0 01-.468-.625 4.866 4.866 0 01-.313-.688 4.184 4.184 0 01-.156-.563 8.927 8.927 0 01-.094-.468c-.021-.23-.052-.48-.094-.75a6.265 6.265 0 00-.093-.719 6.223 6.223 0 01-.032-.5c-.375.396-.864.875-1.468 1.438a26.396 26.396 0 01-1.969 1.593c-.709.5-1.427.938-2.157 1.313-.708.354-1.354.531-1.937.531-.542 0-.927-.188-1.156-.563a2.462 2.462 0 01-.313-1.218zm23.906.843v-.968c-.354-1.25-.406-2.48-.156-3.688a9.136 9.136 0 011.406-3.25 8.805 8.805 0 012.594-2.437 8.246 8.246 0 013.469-1.219h.563c.458 0 .833.104 1.124.313.313.187.553.437.719.75.188.312.313.666.375 1.062.084.396.125.792.125 1.188 0 .541-.062 1.072-.187 1.593-.104.5-.229 1.01-.375 1.532l-.375 1.562a7.815 7.815 0 00-.156 1.594v.187c.02.042.041.167.062.375.042.188.073.302.094.344.041 0 .146.01.312.031h.906a2.28 2.28 0 00.626-.156l5.937-2.75h.094a.505.505 0 01.125-.031c.208 0 .375.062.5.187a.624.624 0 01.218.5c0 .104-.01.209-.031.313 0 .083-.052.166-.156.25-.146.104-.417.25-.813.437a80.83 80.83 0 00-1.218.625l-1.25.657a7.064 7.064 0 01-.813.406 8.288 8.288 0 01-.969.468c-.354.125-.718.25-1.093.375s-.75.23-1.125.313a5.613 5.613 0 01-.969.094c-.458 0-.833-.073-1.125-.219a1.727 1.727 0 01-.656-.625 3.112 3.112 0 01-.313-.938 5.45 5.45 0 010-1.156c-.416.334-.864.688-1.343 1.063-.48.375-.98.718-1.5 1.031a12.87 12.87 0 01-1.594.813 4.215 4.215 0 01-1.656.343 1.65 1.65 0 01-.844-.218c-.25-.167-.427-.417-.532-.75zm1.688-.656c.479 0 1.01-.135 1.594-.406a11.608 11.608 0 001.718-1.063 13.681 13.681 0 001.532-1.312c.458-.48.812-.906 1.062-1.281a8.163 8.163 0 01.25-1.782 6.44 6.44 0 00.25-1.78.84.84 0 00-.031-.188v-.188c-.271-.229-.5-.364-.687-.406a3.599 3.599 0 00-.75-.063h-.282a.65.65 0 00-.25.032 11.24 11.24 0 00-.625.593c-.291.271-.604.573-.937.907-.313.333-.615.646-.906.937-.271.292-.459.49-.563.594-.021 0-.063.042-.125.125a3.335 3.335 0 00-.219.25l-.187.313a1.7 1.7 0 00-.094.218l-.75 3.657v.843zm13.625 9.469c0-1.354.302-2.604.906-3.75a12.95 12.95 0 012.25-3.094 19.897 19.897 0 013.094-2.468 37.357 37.357 0 013.344-1.907l.906-2.906a8.473 8.473 0 01-.625.625l-.938.938-.968.906c-.313.27-.532.458-.656.562-.25.209-.553.448-.907.719-.354.27-.739.531-1.156.781-.396.23-.802.427-1.219.594-.416.146-.791.219-1.125.219-.458 0-.76-.104-.906-.313-.125-.229-.187-.552-.187-.968 0-.334.02-.678.062-1.032a2.625 2.625 0 00-.031-1.062l1.219-3.313c.187-.187.364-.479.531-.875.187-.396.364-.791.531-1.187.188-.396.375-.74.562-1.032.209-.291.428-.437.657-.437.25 0 .458.073.625.219.187.146.281.354.281.625 0 .208-.031.396-.094.562a5.45 5.45 0 01-.219.594c-.27.563-.541 1.094-.812 1.594-.25.5-.49 1-.719 1.5-.208.5-.385 1.02-.531 1.562a7.512 7.512 0 00-.188 1.75h.126l.187-.093c.125-.084.26-.167.406-.25l.5-.313c.167-.104.313-.198.438-.281A14.695 14.695 0 00180 23.719a99.636 99.636 0 002.594-3.157c.083-.125.156-.218.218-.28a.679.679 0 01.157-.126.21.21 0 01.156-.062h.281c.292 0 .521.062.688.187.187.104.302.354.344.75.02.271 0 .604-.063 1-.063.375-.146.75-.25 1.125-.104.375-.219.75-.344 1.125a9.927 9.927 0 01-.281.844v.469c.042-.021.135-.052.281-.094.167-.042.281-.073.344-.094.125-.02.469-.135 1.031-.343.563-.209 1.167-.428 1.813-.657.666-.25 1.281-.479 1.843-.687a30.99 30.99 0 001.063-.407h.063a.51.51 0 01.374.157.47.47 0 01.188.375c0 .146-.052.27-.156.375a1.383 1.383 0 01-.313.281c-.125.063-.26.125-.406.188-.146.062-.271.114-.375.156a8.587 8.587 0 01-.625.312c-.271.104-.583.23-.937.375-.334.125-.688.271-1.063.438-.375.166-.74.323-1.094.468-.854.355-1.781.73-2.781 1.125L180 37.938c-.125.5-.365 1.021-.719 1.563a8.171 8.171 0 01-1.187 1.5 5.586 5.586 0 01-1.532 1.094 3.453 3.453 0 01-1.656.437c-.583 0-1.083-.156-1.5-.468a3.476 3.476 0 01-1.031-1.157 4.666 4.666 0 01-.563-1.5 6.878 6.878 0 01-.187-1.531zm1.687 0c0 .27.021.573.063.906.063.334.167.657.313.969.145.313.322.573.531.781.229.209.521.313.875.313.458 0 .875-.146 1.25-.438.396-.27.739-.614 1.031-1.031.313-.396.573-.823.781-1.281.209-.459.375-.865.5-1.219.063-.25.156-.604.282-1.063.124-.437.239-.874.343-1.312.125-.438.229-.833.313-1.188.083-.333.125-.53.125-.593v-.125l.906-3.938c-.833.271-1.687.73-2.563 1.375a14.043 14.043 0 00-2.343 2.25 12.754 12.754 0 00-1.75 2.75c-.438.98-.657 1.927-.657 2.844zm16.063-13.531l.031-.032.094-.093c.042-.188.125-.51.25-.969.125-.458.26-.948.406-1.469l.406-1.5c.146-.458.25-.77.313-.937.021-.084.083-.26.187-.532.126-.291.261-.604.407-.937l.437-1c.146-.333.25-.583.313-.75.146-.292.364-.677.656-1.156.313-.48.656-.927 1.031-1.344a8.656 8.656 0 011.219-1.125c.417-.333.802-.5 1.156-.5.188 0 .334.052.438.156.125.104.208.23.25.375.062.125.104.271.125.438.021.166.031.312.031.437 0 1.084-.156 2.167-.469 3.25a14.91 14.91 0 01-1.218 3.063 16.25 16.25 0 01-1.876 2.781 19.695 19.695 0 01-2.25 2.313 4.82 4.82 0 00-.093.375 3.412 3.412 0 01-.063.406v.062c0 .417.104.75.313 1 .229.25.5.438.812.563.313.104.657.177 1.031.218.396.042.771.063 1.126.063.187 0 .458-.094.812-.281.375-.188.75-.396 1.125-.625.396-.25.781-.469 1.156-.657.375-.187.657-.28.844-.28.187 0 .333.062.437.187a.703.703 0 01.157.468c0 .313-.24.646-.719 1-.479.355-1.031.688-1.656 1a20.71 20.71 0 01-1.813.75c-.562.209-.937.313-1.125.313a4.525 4.525 0 01-1.75.031 4.101 4.101 0 01-1.406-.593 4.27 4.27 0 01-1-1.032 3.427 3.427 0 01-.469-1.281l.344-2.156zm5.906-9.313c-.187 0-.406.156-.656.469a8.854 8.854 0 00-.687 1.031c-.23.396-.438.782-.626 1.157-.166.354-.26.593-.281.718a30.473 30.473 0 00-.656 1.781c-.125.355-.25.698-.375 1.032-.104.333-.177.573-.219.718h.157l.187-.218c.125-.167.26-.354.406-.563l.5-.625c.188-.229.323-.416.407-.562.083-.125.197-.313.343-.563.146-.27.24-.437.281-.5.084-.229.198-.531.344-.906.146-.396.282-.781.406-1.156.126-.375.23-.698.313-.969.104-.292.156-.458.156-.5v-.344zm3.094 10.094c.042-.125.104-.344.187-.656.105-.334.198-.688.282-1.063.104-.375.187-.729.25-1.062.083-.354.146-.594.187-.719.125-.5.271-1.042.438-1.625a7.178 7.178 0 01.75-1.625 3.9 3.9 0 011.187-1.219c.5-.333 1.115-.5 1.844-.5.271 0 .458.104.562.313.126.187.23.396.313.625v.468c.021.209.031.355.031.438 0 .896-.094 1.688-.281 2.375a6.184 6.184 0 01-.813 1.906A8.794 8.794 0 01202 24.438a37.86 37.86 0 01-1.781 1.593 8.806 8.806 0 00-.094.313c-.042.146-.063.25-.063.312v.063c0 .375.063.677.188.906.125.23.292.417.5.563.229.125.479.208.75.25.292.02.604.03.938.03.979 0 1.916-.135 2.812-.405a7.249 7.249 0 002.469-1.313c.104-.104.229-.25.375-.438l.5-.625c.166-.208.344-.385.531-.53.187-.167.385-.25.594-.25.208 0 .333.083.375.25.041.166.062.333.062.5 0 .458-.146.895-.437 1.312-.271.396-.636.76-1.094 1.093a8.145 8.145 0 01-1.531.844 13.723 13.723 0 01-3.313 1c-.5.084-.927.125-1.281.125-1.104 0-2.031-.177-2.781-.531-.729-.375-1.229-1.115-1.5-2.219l.156-2.156zm4.469-6.156c-.417.375-.75.718-1 1.031a4.323 4.323 0 00-.563.938 9.924 9.924 0 00-.343 1.03 89.12 89.12 0 00-.282 1.313c.396-.312.719-.625.969-.937.271-.313.49-.636.656-.969.167-.333.292-.688.375-1.063.084-.395.146-.843.188-1.343z" fill="#000"/><path d="M6.188 16.568c.477-.137.99-.086 1.43.142l2.464 1.273 5.671 2.17 6.302 3.257 2.261 1.169a5 5 0 001.887.541l12.235 1.004 16.094.478a.847.847 0 01-.025 1.693h-.946.437a.521.521 0 11-.015 1.042l-16.805-.5-12.845-1.508a5 5 0 01-1.907-.63l-6.062-3.48a4.998 4.998 0 00-1.295-.52l-7.908-1.946a2.297 2.297 0 01-.443-.159l-.833-.399c-1.616-.773-1.419-3.133.303-3.627z" fill="#2D635E"/><path d="M10.149 30.163a.044.044 0 01.021-.075l3.271-.578a5 5 0 001.403-.47l2.17-1.107 3.413-2.083a5.543 5.543 0 012.888-.812c.584 0 1.113-.346 1.346-.882l.242-.556a.01.01 0 01.014-.006l4.65 1.602a1.342 1.342 0 01.68 2.012v.002a8.154 8.154 0 01-2.87 3.507l-.289.2a9.357 9.357 0 01-1.964 1.034l-2.737 1.047a12.116 12.116 0 01-11.84-2.478l-.398-.357z" fill="#2D635E"/><path d="M27.037 8.774c-.101-.185-.38-.122-.416.094l-.66 3.938-.422 2.84-.663 2.707a21.251 21.251 0 00-.604 5.786c0 .02.007.04.019.055l.527.722.628 1.068a.03.03 0 00.017.013l1.208.362c.279.083.53.235.734.443l.461.471c.956.978 2.65.225 2.698-1.197.003-.088.012-.176.03-.263l.234-1.21c.4-2.059.418-4.155.056-6.18l-.132-.735a19.69 19.69 0 00-2.129-6.036l-1.586-2.878zM2.388 7.135A7.547 7.547 0 016.954 4.18l2.074-.433a13.032 13.032 0 003.783-1.431l2.287-1.302a.016.016 0 01.024.014l-.027.645a12.907 12.907 0 01-5.953 10.34 3.247 3.247 0 00-1.36 4.112l.725 1.666a.03.03 0 010 .021l-.746 2.277a.883.883 0 01-.839.607c-.412 0-.822-.057-1.218-.171l-1.919-.551a6.662 6.662 0 01-3.314-6.502L.63 12.02a.05.05 0 01.004-.015l.314-.71a.037.037 0 00.003-.014c0-1.406.444-2.776 1.27-3.914l.168-.232z" fill="#2D635E"/><path d="M4.176 8.049c-.582.472-.87 1.542-.94 2.017-.106.466-.242.19-.405-.044.207.04.518-.045.106-.714-.412-.668-.03-1.229.213-1.426.171.278.557.55.727-.591.213-1.427 1.97-.347 1.349-.469-.497-.098-.692.353-.728.591.207.04.26.163-.322.636zm9.879 23.475c.462.314 1.404.566 1.817.653.41.101.187.13.003.175.014-.088-.09-.236-.62-.13-.529.104-1.047-.131-1.24-.262.221-.044.414-.183-.577-.392-1.24-.261-.495-.916-.537-.654-.033.21.372.349.578.392.014-.087.113-.096.576.218z" fill="#fff" stroke="#fff" stroke-width=".1"/></svg>