<svg width="312" height="417" fill="none" xmlns="http://www.w3.org/2000/svg"><path d="M27.563 52.512s-3.002 1.5-5.003 0a10.43 10.43 0 01-1.347-1.227m10.353-29.457C30.4 41.33 22.961 93.67 2.547 147.02m29.02-125.193c-.666-6.803-2.07-8.233-3.003-8.052m3.002 8.052c4.503 24.547 15.11 75.28 21.514 81.825M2.547 147.021c-1.167 3.137-2.802 20.375 0 64.233l1.501 33.344m-1.501-97.577l69.046 29.457M2.547 147.021c19.675-6.955 57.326-25.366 50.533-43.368M21.213 51.285c-1.806-1.95-3.564-5.21-1.655-8.592 1.668-3.682 5.004-12.274 5.004-17.183 0-4.54 1.996-8.963 3.22-11.006.182-.304.393-.63.736-.717a.785.785 0 01.046-.01m-7.351 37.508c1.45-.682 4.25-3.191 3.849-7.773-.384-4.392 1.806-11.263 1.99-11.828l.025-.078c.668-1.926 1.679-6.023.486-7.324-1.2-1.309 1.168-6.273 2.502-8.591M74.595 415L11.52 388.43a5.001 5.001 0 01-3.058-4.471L5.55 277.942l-1.501-33.344M74.595 415l221.721-27.276c2.523-.31 4.412-2.414 4.392-4.956-.598-76.775.298-223.334 8.542-228.792M74.595 415l-3.002-238.522m237.657-22.502c8.406-5.564-15.51-86.053-28.519-125.602-1.667-3.682-4.503-12.438-2.501-18.002 2.001-5.564-165.61-.049-249.666 3.404m280.686 140.2L71.593 176.478M53.08 103.653c6.405 6.546 15.01 51.278 18.513 72.825m0 0c-23.315.682-69.465 15.261-67.545 68.12M97.5 385c-2.5-2.5-9.8-7.4-5-33 3.696-19.711 16.719-27.842 26.928-30.464 3.618-.929 5.988 2.879 4.276 6.198-5.231 10.142-7.96 16.286-8.982 19.766M97.5 385c6.5 4.5 24 4.2 34-29 6.053-20.097-3.371-12.756-10.5-7.732-4.508 3.177-8.098 5.429-6.278-.768M97.5 385c-.185-10.833 14-24 17.222-37.5m160.905-175.245c-6.774-4.233-23.813-3.339-33.627 29.245-6.053 20.097 3.371 12.756 10.5 7.732 3.052-2.151 5.5-3.129 6.5-2.846m16.627-34.131c.254.159.477.35.694.557 2.742 2.612 9.287 8.11 4.679 32.688-3.696 19.711-16.719 27.842-26.928 30.464-3.618.929-5.977-2.9-4.265-6.22 8.23-15.957 9.693-23.744 9.193-23.358m16.627-34.131C260.5 181 258 206.103 259 206.386m-18.572 172.346c-10.209-2.622-23.232-10.752-26.928-30.464-4.8-25.6 2.5-30.5 5-33m21.928 63.464c3.618.929 5.988-2.879 4.276-6.198m-4.276 6.198c24.742 20.771 18.357-14.321 12.072-34.464m-34-29c6.5-4.5 24-4.2 34 29m-34-29c-.18 10.538 13.235 23.282 16.934 36.394m17.066-7.394c6.053 20.097-3.371 12.757-10.5 7.732m0 0c-4.214-2.97-7.626-5.131-6.566-.338M242 352c8.303 5.189 20.467 16.561 2.704 20.534m-9.27-20.872c.074.334.169.702.288 1.106m-.288-1.106c.104.369.2.737.288 1.106m0 0c1.022 3.48 3.751 9.625 8.982 19.766M126.794 196c10.209 2.622 23.232 10.752 26.928 30.464 4.608 24.578-1.937 30.076-4.679 32.688-.217.207-.44.398-.694.557-6.774 4.232-23.813 3.339-33.627-29.245M126.794 196c-3.618-.929-5.988 2.879-4.276 6.198 5.231 10.141 7.96 16.286 8.982 19.766.088.369.184.737.288 1.106 1.06 4.793-2.352 2.632-6.566-.338-7.129-5.025-16.553-12.365-10.5 7.732M126.794 196c-19.765-6.4-16.283 20.309-12.072 34.464M9 138l5.5-13.5m17-79c-1.068 9.5-3.85 29.4-6.438 33m30.438 37c4 16.925 12 51.82 12 56M5 152c-.5 8.333-1.2 26.6 0 33m4.5 58.5l1.5 34.442M12 379c-.5 6.5-.5 6.5 11.5 10.5M12 373l-1-28m5.5 22v9m-8-213.5c-.333 6.5-.7 19.9.5 21.5M34.5 53.5c-1.167 8.833-4 26.5-6 26.5M7 142c.833.333 3.7-.7 8.5-7.5" stroke="#444A4A" stroke-width="2"/><path d="M78.249 85.143c-.761-2.459-1-5.097-.719-7.915.324-2.87 1.022-5.76 2.096-8.671 1.073-2.912 2.486-5.744 4.239-8.5a55.037 55.037 0 015.75-7.685c2.134-2.327 4.399-4.34 6.795-6.038 2.443-1.703 4.868-2.956 7.275-3.758a2.98 2.98 0 012.037.468c.66.395 1.241.916 1.742 1.565a7.859 7.859 0 011.171 2.128c.325.764.527 1.472.603 2.124l.797 6.773c.055.466-.096.79-.452.974a4.132 4.132 0 01-.961.255 6.26 6.26 0 01-1.204 0c-.476-.039-.744-.314-.805-.826a8.996 8.996 0 00-.176-.9 71.544 71.544 0 01-.304-1.38c-.107-.506-.211-.99-.312-1.45l-.107-.908a17.18 17.18 0 00-.177-.9 10.258 10.258 0 00-.336-1.659 7.47 7.47 0 00-.6-1.487c-.241-.444-.501-.649-.781-.616l-2.444.287s-.195.142-.587.423c-.397.236-.859.526-1.384.871-.526.345-1.05.714-1.57 1.105-.525.345-.914.65-1.166.916-.129.11-.343.3-.641.571-.252.266-.527.534-.826.805-.298.271-.573.54-.825.805a8.403 8.403 0 01-.571.563c-2.23 2.717-4.152 5.232-5.768 7.546-1.621 2.267-2.929 4.592-3.923 6.975-.994 2.382-1.663 4.915-2.009 7.599-.304 2.631-.248 5.716.169 9.254a58.77 58.77 0 00.76 4.655 73.617 73.617 0 001.375 5.077 35.624 35.624 0 002.153 5.056c.849 1.6 1.838 2.993 2.97 4.182a11.58 11.58 0 003.93 2.723c1.49.628 3.19.829 5.098.604l1.536-.18a338.41 338.41 0 005.295-2.535 51.075 51.075 0 004.116-2.324 24.73 24.73 0 003.262-2.366 20.356 20.356 0 002.76-3.015c.904-1.145 1.806-2.502 2.707-4.071.901-1.57 1.912-3.41 3.032-5.525l.209-.025a.626.626 0 01.272-.102c.838-.099 1.306.271 1.404 1.109.126 1.07-.011 2.314-.411 3.73-.358 1.364-1.166 2.922-2.423 4.674-1.211 1.747-2.992 3.656-5.344 5.726-2.312 2.018-5.342 4.145-9.091 6.379-.706.414-1.325.77-1.857 1.068a11.71 11.71 0 01-1.556.608 9.118 9.118 0 01-1.59.329c-.507.106-1.086.198-1.738.275-2.42.285-4.588.115-6.502-.51a15.164 15.164 0 01-5.003-2.809 21.044 21.044 0 01-3.857-4.503 35.079 35.079 0 01-2.715-5.627 50.227 50.227 0 01-1.849-6.084 66.989 66.989 0 01-.969-5.833zm44.757 16.966a5.863 5.863 0 01.012-.497l.042-.854c.008-.332.021-.616.041-.855a4.43 4.43 0 00.004-.567l-.033-.279-.049-.419.46-4.514a93.56 93.56 0 011.877-5.106c.704-1.64 1.546-3.108 2.526-4.403a13.442 13.442 0 013.513-3.245c1.407-.874 3.159-1.434 5.253-1.68.419-.05.948.03 1.586.238.679.156 1.343.385 1.992.686.696.296 1.324.623 1.886.982.602.307 1.062.606 1.38.9 1.416-.403 2.449-.643 3.101-.72a24.17 24.17 0 011.668-.266c.46-.102.938-.252 1.433-.452.543-.206 1.345-.607 2.408-1.204a8.204 8.204 0 012.263-.62c.326-.038.645.066.957.312.359.241.56.548.604.92.055.466-.059.904-.341 1.315-.282.41-.651.69-1.105.838l-8.499 2.982-.727.44a17.637 17.637 0 01-.83 7.39 20.548 20.548 0 01-3.553 6.506 20.804 20.804 0 01-5.661 4.843 18.697 18.697 0 01-7.09 2.32 9.42 9.42 0 01-.916.037l-.838.099c-1.073-.299-1.885-.982-2.436-2.05-.503-1.074-.813-2.099-.928-3.077zm4.634.871c.073.227.273.322.599.284l.699-.083c1.676-.197 3.349-.818 5.019-1.864a19.184 19.184 0 004.355-3.91 17.942 17.942 0 002.941-5.09c.723-1.879.98-3.702.772-5.471-1.49.175-2.993.233-4.51.176a23.642 23.642 0 00-4.379.09l-.07.009-5.073 6.826c-.287.365-.492.837-.612 1.418-.121.58-.189 1.202-.205 1.864a27.782 27.782 0 00.156 3.734l.115.978c.06.512.124.858.193 1.039zm30.425 23.324l-.082-.698-.107-.908-.091-.768a28.397 28.397 0 00-.041-.349l-.126-22.145c.123-1.76.243-3.143.361-4.148a58.79 58.79 0 01.288-2.37c.12-.581.263-.975.427-1.184l3.176-16.94c.12-.58.376-1.413.768-2.497a30.029 30.029 0 011.376-3.348c.578-1.106 1.221-2.055 1.931-2.846.704-.838 1.451-1.304 2.243-1.397.325-.038.618.045.879.25.26.206.479.463.657.773.224.304.382.64.472 1.006.137.362.219.659.247.892.252 2.141.206 4.365-.136 6.67a44.89 44.89 0 01-1.454 6.897 39.715 39.715 0 01-2.629 6.54c-1.074 2.108-2.245 3.992-3.513 5.652l-.604 3.894a51.744 51.744 0 0014.989-4.383 95.42 95.42 0 0013.609-7.689l.35-.04c.419-.05.717.08.895.39.219.257.348.548.386.874a2.17 2.17 0 01-.094 1.003c-.107.295-.38.587-.818.874a58.767 58.767 0 01-11.144 6.975 82.859 82.859 0 01-12.323 4.777 235.29 235.29 0 002.366 2.058c.629.54 1.143 1.093 1.54 1.66.449.608.793 1.322 1.031 2.144.285.816.512 1.946.682 3.389.427 3.631-.062 6.898-1.467 9.801-1.353 2.943-3.266 5.741-5.739 8.392-.591.588-1.343 1.22-2.255 1.893-.865.668-1.74 1.054-2.625 1.158-.791.094-1.403-.094-1.836-.562-.432-.469-.76-1.044-.981-1.726a7.743 7.743 0 01-.387-2.078l-.221-1.886zm3.401-20.435l-.053 4.962c-.019 1.843-.01 3.73.028 5.66.039 1.931.1 3.859.185 5.784.085 1.925.226 3.726.423 5.402 1.257-.148 2.402-.849 3.434-2.104 1.085-1.213 1.999-2.665 2.744-4.358a27.995 27.995 0 001.746-5.019c.414-1.701.581-3.089.501-4.166-.06-1.314-.284-2.42-.673-3.319a5.767 5.767 0 00-1.458-2.164c-.63-.54-1.412-.967-2.346-1.282a31.471 31.471 0 00-3.29-.887l-.349.041c-.326.038-.542.205-.649.501a5.293 5.293 0 00-.243.949zm5.066-30.968c-.047.005-.118.203-.214.591-.101.343-.243.737-.427 1.183a37.82 37.82 0 00-.402 1.393 13.82 13.82 0 01-.226 1.088 26.66 26.66 0 00-.317 1.524 81.73 81.73 0 00-.353 1.812 34.634 34.634 0 01-.238 1.585c-.091.436-.133.677-.128.723l.05.42a55.171 55.171 0 001.861-5.246c.536-1.857.747-3.675.632-5.455l-.238.382zm26.378 47.305l-.082-.698-.106-.908-.091-.768-.041-.35-.127-22.144a95.02 95.02 0 01.362-4.149c.112-1.051.208-1.842.288-2.37.12-.58.262-.975.427-1.183l3.175-16.94c.121-.58.377-1.413.769-2.498.386-1.13.844-2.247 1.376-3.347.578-1.107 1.221-2.056 1.93-2.847.704-.838 1.452-1.304 2.243-1.397a1.15 1.15 0 01.879.251c.26.205.48.463.658.772.224.304.382.64.472 1.007.137.361.219.658.246.891.252 2.142.207 4.365-.135 6.671a44.77 44.77 0 01-1.455 6.897 39.54 39.54 0 01-2.629 6.54c-1.073 2.108-2.244 3.992-3.512 5.651l-.604 3.894a51.747 51.747 0 0014.989-4.382 95.411 95.411 0 0013.609-7.69l.349-.04c.419-.05.718.08.896.39.219.257.348.549.386.875a2.17 2.17 0 01-.095 1.002c-.106.296-.379.587-.817.875a58.767 58.767 0 01-11.144 6.975 82.826 82.826 0 01-12.324 4.776c.948.833 1.737 1.519 2.366 2.058.63.54 1.144 1.093 1.541 1.66.449.608.792 1.323 1.031 2.144.284.816.512 1.946.681 3.389.428 3.631-.061 6.898-1.466 9.801-1.353 2.944-3.266 5.741-5.739 8.392-.591.589-1.343 1.22-2.255 1.894-.865.668-1.74 1.054-2.625 1.158-.791.093-1.403-.095-1.836-.563-.433-.468-.76-1.043-.982-1.725a7.75 7.75 0 01-.386-2.079l-.222-1.885zm3.402-20.436l-.053 4.962c-.02 1.843-.01 3.73.028 5.661.039 1.93.1 3.858.185 5.783.085 1.925.226 3.726.423 5.402 1.257-.148 2.402-.849 3.434-2.103 1.084-1.213 1.999-2.666 2.744-4.358a28.134 28.134 0 001.746-5.02c.413-1.701.581-3.089.501-4.165-.06-1.315-.285-2.421-.673-3.319a5.762 5.762 0 00-1.459-2.165c-.629-.539-1.411-.967-2.345-1.282a31.79 31.79 0 00-3.29-.887l-.349.041c-.326.038-.543.205-.649.501a5.293 5.293 0 00-.243.949zm5.066-30.968c-.047.006-.118.203-.214.592-.101.342-.244.736-.427 1.183-.137.44-.271.905-.403 1.392-.085.482-.16.845-.226 1.089-.096.389-.201.897-.316 1.524a76.67 76.67 0 00-.353 1.811 34.567 34.567 0 01-.239 1.586c-.09.435-.132.676-.127.723l.049.419a54.622 54.622 0 001.861-5.246c.537-1.856.748-3.675.633-5.455l-.238.382zm24.477 13.688c.06-.29.143-.796.247-1.516a29.6 29.6 0 00.349-2.448c.134-.865.227-1.679.279-2.44.093-.814.17-1.365.23-1.656.148-1.15.332-2.398.551-3.746a16.212 16.212 0 011.249-3.828 8.78 8.78 0 012.333-3.036c1.03-.876 2.359-1.41 3.989-1.601.605-.072 1.051.112 1.339.55.328.386.616.824.862 1.314l.123 1.048c.102.46.163.783.185.97.236 2.001.234 3.795-.004 5.38a13.947 13.947 0 01-1.315 4.474A19.824 19.824 0 01233.775 82a84.739 84.739 0 01-3.562 4.03c-.03.144-.072.385-.127.722-.055.337-.074.575-.058.715l.017.14c.098.837.318 1.496.657 1.975.34.48.761.855 1.265 1.126.545.219 1.126.34 1.742.361.657-.03 1.358-.088 2.103-.176a21.751 21.751 0 006.178-1.647 16.31 16.31 0 005.172-3.582c.205-.26.446-.619.723-1.076l.953-1.528a7.2 7.2 0 011.047-1.327c.375-.422.796-.66 1.261-.715.466-.054.767.099.904.46.137.362.227.729.271 1.101.121 1.025-.09 2.04-.633 3.048-.501.956-1.22 1.866-2.156 2.732-.896.813-1.962 1.576-3.2 2.288a31.091 31.091 0 01-3.607 1.84c-1.213.52-2.39.942-3.532 1.265-1.096.318-2.039.523-2.831.616-2.467.29-4.585.138-6.354-.456-1.728-.646-3.04-2.168-3.935-4.564l-.218-4.86zm8.368-14.932c-.833.948-1.487 1.804-1.964 2.568a9.695 9.695 0 00-1.01 2.242 22.47 22.47 0 00-.497 2.395c-.088.86-.182 1.862-.284 3.007.803-.802 1.442-1.585 1.919-2.35.523-.769.927-1.548 1.211-2.337.285-.788.471-1.613.559-2.472a24.85 24.85 0 00.066-3.053zm17.47 11.893c.06-.29.142-.796.246-1.516a29.18 29.18 0 00.349-2.448c.135-.866.228-1.679.28-2.44.093-.813.17-1.365.23-1.656a115 115 0 01.55-3.746 16.26 16.26 0 011.249-3.828 8.792 8.792 0 012.333-3.036c1.03-.876 2.36-1.41 3.989-1.602.605-.07 1.052.113 1.339.55.329.387.616.825.863 1.315l.123 1.048c.101.46.163.783.185.97.235 2.001.234 3.795-.004 5.38a13.948 13.948 0 01-1.315 4.474 19.829 19.829 0 01-2.498 4.046 84.078 84.078 0 01-3.561 4.03c-.03.144-.073.385-.127.722-.055.337-.074.575-.058.715l.016.14c.099.837.318 1.496.658 1.975.339.48.761.855 1.265 1.126.545.219 1.125.34 1.741.361.658-.03 1.359-.089 2.104-.176a21.751 21.751 0 006.178-1.647 16.317 16.317 0 005.171-3.582c.206-.26.447-.619.723-1.076l.953-1.528a7.2 7.2 0 011.048-1.327c.375-.422.795-.66 1.261-.715.465-.055.767.099.904.46.136.362.227.729.271 1.101.12 1.024-.091 2.04-.633 3.048-.501.956-1.22 1.866-2.157 2.732-.895.813-1.962 1.576-3.2 2.288a31.095 31.095 0 01-3.606 1.84c-1.213.52-2.391.942-3.533 1.265-1.095.317-2.039.523-2.83.616-2.467.29-4.586.138-6.355-.456-1.728-.646-3.039-2.168-3.935-4.564l-.217-4.86zm8.367-14.932c-.832.948-1.487 1.804-1.963 2.568a9.698 9.698 0 00-1.011 2.242 22.47 22.47 0 00-.497 2.395c-.087.86-.182 1.862-.283 3.007.802-.802 1.442-1.585 1.918-2.35.523-.769.927-1.548 1.212-2.337.285-.788.471-1.613.559-2.473a24.66 24.66 0 00.065-3.052zM90.586 294.036l-9.78 8.144-.325.038a2.415 2.415 0 01-1.118-.144c-.348-.143-.547-.431-.598-.866a1.35 1.35 0 01.128-.786 2.82 2.82 0 01.575-.728c.264-.251.75-.639 1.46-1.163s1.45-1.088 2.224-1.693a48.291 48.291 0 012.217-1.748c.746-.528 1.252-.9 1.52-1.115.129-.161.327-.35.595-.565.264-.251.494-.48.69-.687.228-.247.424-.454.588-.62.164-.166.244-.267.24-.303l-5.179-7.981c-.21-.232-.343-.419-.396-.559l-.083-.706c-.128-1.087.333-1.692 1.383-1.815.145-.017.484.053 1.016.211a17.77 17.77 0 012.051.585 62.49 62.49 0 012.518.805c.88.3 1.683.573 2.409.818.726.245 1.34.466 1.84.664l.744.243 4.247-5.565c.057-.448.303-1.009.738-1.684.47-.679.955-1.397 1.453-2.153.499-.756.925-1.504 1.278-2.243.35-.775.49-1.453.422-2.032l-.019-.163-4.776-8.304a9.37 9.37 0 01-1.02-2.578 39.17 39.17 0 01-.447-2.866 7.893 7.893 0 01.1-2.434 7.55 7.55 0 01.824-2.355 6.24 6.24 0 011.607-1.786c.637-.515 1.426-.828 2.367-.939.978-.115 1.809.081 2.492.588a5.525 5.525 0 011.764 1.885 9.552 9.552 0 011.128 2.566c.251.888.421 1.712.511 2.472a25.415 25.415 0 01-.026 6.336 43.458 43.458 0 01-1.246 6.259l.089.76a526.238 526.238 0 013.122 4.534 48.747 48.747 0 012.948 4.939 42.25 42.25 0 012.317 5.179 22.694 22.694 0 011.284 5.3c.166 1.412.086 2.762-.24 4.048a9.357 9.357 0 01-1.53 3.374c-.727 1.003-1.658 1.828-2.793 2.476-1.099.643-2.373 1.05-3.821 1.22a15.46 15.46 0 01-4.754-.156 25.043 25.043 0 01-4.466-1.457 32.188 32.188 0 01-4.189-2.371 42.004 42.004 0 01-3.757-2.917l-.326.038zm2.499-2.166c.004.036.11.152.316.348.243.192.508.418.796.678.32.219.64.457.964.712.324.256.605.461.844.617.121.096.322.237.6.425.311.147.609.332.892.556.315.183.594.37.837.562.275.151.45.241.527.268.23.083.577.226 1.041.429l1.393.607a54.666 54.666 0 002.084.856c.875.264 1.663.41 2.364.438a22.102 22.102 0 002.185-.147c1.086-.128 1.986-.436 2.7-.924a5.94 5.94 0 001.757-1.913 7.161 7.161 0 00.799-2.572 10.96 10.96 0 00.048-2.869 19.455 19.455 0 00-.642-3.118 14.456 14.456 0 00-1.125-3.007l-6.06-10.795-3.582 6.533-8.764 12.099.026.217zm-5.08-6.671c.009.072.044.215.106.428.093.173.162.293.207.361.175.237.396.559.665.968.304.405.589.794.853 1.166.296.333.535.653.719.962.215.268.34.401.376.396l.218-.025c.108-.013.309-.183.6-.511.288-.365.594-.731.917-1.099l.863-1.093c.251-.36.393-.56.425-.601l-.304-.239-4.885-.802-.76.089zm12.049-29.115c.238 2.028.763 3.839 1.575 5.432a44.833 44.833 0 002.936 4.831c.168-.13.305-.367.412-.71.102-.379.184-.774.246-1.185.057-.447.101-.856.131-1.227.03-.37.058-.594.086-.671a6.239 6.239 0 01-.009-.549c.038-.298.054-.631.047-.997-.01-.403-.019-.787-.025-1.153l.067-.834-.019-.163a45.513 45.513 0 00-.214-1.352c-.09-.76-.24-1.568-.451-2.425-.215-.892-.507-1.665-.878-2.319-.375-.69-.852-1.001-1.431-.933-.58.068-1.056.234-1.428.498-.373.264-.647.59-.822.978a5.669 5.669 0 00-.287 1.3c-.017.479.004.973.064 1.479zm19.916 41.985l-.096-.815-.103-.869c-.871-2.1-1.212-4.226-1.025-6.377.224-2.155.817-4.134 1.78-5.936a15.401 15.401 0 014.009-4.767 14.442 14.442 0 015.78-2.827l.978-.115c.796-.094 1.469.011 2.019.313a3.344 3.344 0 011.402 1.157c.39.505.68 1.095.869 1.77.226.671.379 1.35.46 2.038a11.88 11.88 0 010 2.808 40.858 40.858 0 01-.338 2.738l-.333 2.793c-.079.89-.061 1.824.054 2.802l.039.326c.045.068.106.281.185.639.111.317.189.51.233.578.073-.009.256-.012.55-.01l.543-.064 1.032-.121a4.028 4.028 0 001.054-.399l9.758-5.994.162-.019a.949.949 0 01.211-.08c.362-.042.665.032.908.224.279.187.439.462.482.824.021.181.025.364.01.55.017.145-.057.3-.221.466-.232.211-.673.52-1.323.927-.613.402-1.276.847-1.99 1.335l-2.038 1.396c-.609.439-1.053.73-1.329.872-.473.35-1.003.687-1.588 1.013-.59.29-1.198.582-1.825.875a19.88 19.88 0 01-1.891.774 9.873 9.873 0 01-1.665.361c-.796.093-1.463.043-1.999-.151-.541-.23-.964-.547-1.269-.952a5.433 5.433 0 01-.735-1.565 9.427 9.427 0 01-.236-2.01c-.656.665-1.362 1.372-2.118 2.121-.756.75-1.555 1.45-2.396 2.099-.842.65-1.71 1.229-2.604 1.738a7.379 7.379 0 01-2.809.936 2.877 2.877 0 01-1.511-.207c-.468-.239-.827-.637-1.076-1.195zm2.798-1.486c.833-.098 1.729-.442 2.687-1.032a20.248 20.248 0 002.77-2.198 23.853 23.853 0 002.393-2.594c.699-.926 1.227-1.741 1.585-2.444a14.29 14.29 0 01.07-3.147 11.29 11.29 0 00.071-3.147 1.542 1.542 0 00-.093-.319l-.038-.326c-.518-.343-.944-.532-1.278-.566-.335-.034-.773-.019-1.317.045l-.488.058c-.218.025-.36.06-.428.105-.196.207-.518.593-.965 1.16-.452.53-.933 1.119-1.444 1.766a69.335 69.335 0 01-1.384 1.815 45.68 45.68 0 01-.856 1.147c-.036.004-.1.085-.192.243a5.433 5.433 0 00-.329.479l-.262.582a2.965 2.965 0 00-.118.399l-.556 6.508.172 1.466zm26.678-1.651c.002-.918.046-1.786.134-2.604.083-.854.186-1.692.31-2.514.123-.822.263-1.665.418-2.527.188-.903.381-1.917.579-3.042l-.032-.271c-1.351 1.003-2.334 1.541-2.949 1.613-.579.068-.895-.115-.946-.549-.087-.431.026-1.031.339-1.802.349-.776.777-1.505 1.284-2.189.543-.688 1.101-1.249 1.674-1.683.61-.439 1.11-.553 1.502-.342.435-.051.787-.019 1.058.096.306.11.64.291 1 .543.756-.75 1.472-1.367 2.15-1.85.677-.483 1.523-.785 2.536-.904 1.594-.187 2.831.034 3.713.665.918.626 1.652 1.714 2.201 3.265l1.486-1.882a8.176 8.176 0 011.469-1.549 6.757 6.757 0 011.854-1.099c.662-.299 1.428-.499 2.297-.601.724-.085 1.462.103 2.214.566.752.462 1.311 1.002 1.677 1.619l.115.978.121 1.032a14.787 14.787 0 01-.013 3.636 13.958 13.958 0 00-.025 3.527 8.01 8.01 0 00.348 1.556c.204.49.633.696 1.284.62.869-.103 1.627-.375 2.272-.818a9.32 9.32 0 001.802-1.534 12.228 12.228 0 001.425-1.929c.434-.676.821-1.29 1.16-1.844.37-.594.715-1.094 1.035-1.498.319-.405.66-.629 1.022-.671.254-.03.538.047.853.23.347.143.538.359.572.649a.418.418 0 01-.035.169l.019.163a12.628 12.628 0 01-1.198 3.39 14.424 14.424 0 01-2.07 2.996 11.875 11.875 0 01-2.825 2.205 9.342 9.342 0 01-3.399 1.06c-1.159.137-2.153.107-2.984-.089-.835-.232-1.536-.884-2.102-1.956a9.602 9.602 0 00-.138-.699l-.083-.706a20.338 20.338 0 01-.086-4.01 17.363 17.363 0 00-.019-3.907 9.852 9.852 0 00-.137-.7l-.083-.706c-.167-.164-.413-.227-.738-.188l-.815.095c-.76.09-1.453.447-2.077 1.071-.624.624-1.177 1.386-1.658 2.287a17.512 17.512 0 00-1.243 3.01 31.874 31.874 0 00-.776 3.23 39.415 39.415 0 00-.476 2.974c-.079.89-.103 1.627-.071 2.211l-.533.613-1.847.217c-.326.039-.526-.103-.601-.424l-.095-.815a20.887 20.887 0 01-.144-2.626c.038-.923.079-1.827.121-2.713.075-.926.131-1.851.17-2.773.038-.922.024-1.82-.042-2.693-.07-.286-.142-.589-.217-.911a3.942 3.942 0 00-.332-.952 1.666 1.666 0 00-.572-.648c-.243-.192-.563-.265-.962-.218a4.522 4.522 0 00-1.645.524 6.4 6.4 0 00-1.419 1.048c-.396.377-.745.84-1.048 1.39a4.806 4.806 0 00-.52 1.658l-2.02 10.92-.425.601-.326.038a3.281 3.281 0 01-.482.112 7.673 7.673 0 01-1.262.038c-.411-.062-.651-.382-.719-.962l-.025-.217zm36.83-6.149a15.735 15.735 0 010-3.744c.149-1.229.409-2.453.78-3.671.181-1.27.409-2.453.684-3.55.27-1.133.56-2.103.869-2.91.341-.848.703-1.515 1.086-2 .379-.522.804-.811 1.275-.866.471-.055.832.049 1.083.313.283.224.453.571.508 1.042l.038.325-1.914 6.668a5.202 5.202 0 01-.22.467c-.124.198-.181.333-.173.405l.026.218c-.051.189-.126.492-.224.907-.061.411-.137.86-.227 1.348-.093.452-.189.885-.287 1.3-.062.412-.102.692-.122.841-.051.189-.071.485-.06.888.01.402.022.658.035.767.008.072.043.215.105.428.058.177.127.297.208.361 1.312-.705 2.683-1.692 4.112-2.962a40.706 40.706 0 004.121-4.284 35.5 35.5 0 003.352-4.744c.98-1.657 1.658-3.224 2.035-4.7.068-.045.243-.12.524-.227.281-.106.458-.164.53-.172l.109-.013.163-.019c.362-.043.689.084.981.38.328.292.511.601.549.927a.864.864 0 01-.028.223l.025.217a64.497 64.497 0 00-1.16 4.652c-.304 1.468-.361 3.016-.169 4.645.081.688.165 1.248.252 1.678.119.39.35.95.693 1.68.058.177.141.259.25.246l.38-.044c1.086-.128 2.123-.672 3.112-1.633a14.778 14.778 0 002.575-3.386 17.954 17.954 0 001.719-4.112c.385-1.404.518-2.612.399-3.626a6.813 6.813 0 00-.342-1.502 10.716 10.716 0 01-.287-1.508 2.133 2.133 0 01.233-1.294c.211-.392.552-.615 1.022-.671.326-.038.647.034.962.218.311.147.608.332.891.555.32.22.637.421.953.604.315.184.66.308 1.035.374l2.009-.236 1.141-.134a3.7 3.7 0 00.7-.138c.172-.093.379-.21.619-.348.237-.175.559-.396.968-.664.446-.273 1.027-.635 1.745-1.087.032-.04.102-.067.211-.08l.217-.025c.326-.038.628.036.907.224.279.187.44.462.483.824.047.398-.024.737-.211 1.016a2.975 2.975 0 01-.636.68 13.1 13.1 0 01-.927.55c-.313.147-.61.273-.891.38-.794.424-1.418.736-1.872.936-.422.16-.755.291-1 .393a7.34 7.34 0 00-.53.172l-.652.077c-.254.03-.614.091-1.08.182-.435.051-1.064.162-1.888.332-.073.009-.177.058-.313.147-.1.086-.167.148-.198.189-.026 1.655-.337 3.38-.934 5.176a19.13 19.13 0 01-2.444 4.968 15.624 15.624 0 01-3.894 3.872c-1.491 1.056-3.106 1.686-4.844 1.891-.362.042-.723-.062-1.083-.313a8.507 8.507 0 01-.942-.991 8.73 8.73 0 01-.684-1.131 7.223 7.223 0 01-.387-.945 15.8 15.8 0 01-.258-.796 21.252 21.252 0 00-.317-1.284 10.47 10.47 0 00-.309-1.23 10.371 10.371 0 01-.157-.863 59.093 59.093 0 01-2.259 2.799 45.619 45.619 0 01-3.096 3.172 31.613 31.613 0 01-3.479 2.722c-1.159.76-2.245 1.2-3.259 1.32-.941.11-1.65-.137-2.124-.742a4.324 4.324 0 01-.793-2.054zm40.537 12.247c-.277-2.354-.008-4.588.808-6.703a22.627 22.627 0 013.278-5.837 34.75 34.75 0 014.872-4.923 65.538 65.538 0 015.422-3.997l.981-5.236c-.155.238-.475.643-.958 1.214l-1.438 1.821-1.498 1.773c-.488.535-.83.905-1.026 1.112-.392.413-.868.891-1.428 1.434a21.813 21.813 0 01-1.85 1.595 16.48 16.48 0 01-1.997 1.281c-.694.338-1.331.542-1.91.61-.797.094-1.343-.026-1.639-.358-.265-.373-.439-.921-.524-1.645a15.49 15.49 0 01-.103-1.806 4.56 4.56 0 00-.271-1.84l1.441-6.006c.288-.364.536-.907.744-1.629.245-.727.472-1.451.681-2.173.245-.726.501-1.362.767-1.907.302-.55.653-.848 1.051-.895.434-.051.811.033 1.131.253.356.215.561.558.617 1.028.042.362.026.695-.048.997-.043.262-.129.621-.259 1.077a65.728 65.728 0 01-1.087 2.936c-.332.92-.646 1.838-.942 2.754-.26.911-.461 1.853-.604 2.824-.111.931-.1 1.957.032 3.08l.217-.026.307-.201c.2-.17.418-.343.655-.517l.805-.646c.268-.215.503-.408.703-.578a25.755 25.755 0 004.732-5.182 173.92 173.92 0 003.862-6.016c.12-.234.227-.412.323-.533a1.18 1.18 0 01.246-.25.37.37 0 01.259-.14l.489-.058c.507-.059.918.002 1.233.186.347.142.597.553.751 1.233.091.466.123 1.05.095 1.751-.032.664-.1 1.333-.204 2.006a40.941 40.941 0 01-.368 2.026 17.266 17.266 0 01-.316 1.524l.096.814c.068-.044.225-.118.47-.22.281-.107.473-.184.578-.233.213-.062.787-.332 1.722-.809.935-.477 1.94-.98 3.016-1.511a932.779 932.779 0 013.064-1.572 52.74 52.74 0 001.763-.923l.109-.013a.903.903 0 01.684.195c.238.156.372.36.402.614a.892.892 0 01-.195.683 2.354 2.354 0 01-.485.553 13.28 13.28 0 01-.668.409c-.241.139-.447.255-.62.348-.236.175-.577.399-1.022.671-.45.237-.967.518-1.553.844-.554.285-1.139.611-1.757.977a72.39 72.39 0 01-1.805 1.038 314.128 314.128 0 01-4.604 2.524l-2.659 18.594c-.115.895-.425 1.849-.93 2.863a14.256 14.256 0 01-1.757 2.85 9.763 9.763 0 01-2.438 2.214c-.881.617-1.811.984-2.789 1.099-1.014.119-1.914-.05-2.703-.508-.783-.422-1.46-1.022-2.028-1.799a8.131 8.131 0 01-1.285-2.492c-.328-.916-.54-1.79-.638-2.623zm2.932-.345c.056.471.154.991.294 1.562.177.567.424 1.107.742 1.62.317.513.678.93 1.083 1.249.44.316.969.437 1.584.365.797-.094 1.491-.433 2.083-1.016a7.08 7.08 0 001.582-2.004c.462-.751.827-1.547 1.096-2.386.268-.839.475-1.579.62-2.22.057-.448.148-1.082.271-1.905.128-.786.238-1.569.329-2.351.128-.786.228-1.495.301-2.128.076-.596.108-.949.096-1.057l-.026-.218.77-7.028c-1.393.641-2.784 1.612-4.172 2.913a24.601 24.601 0 00-3.614 4.39 22.385 22.385 0 00-2.479 5.137c-.561 1.792-.747 3.484-.56 5.077zm25.151-26.801l.048-.061.144-.182c.034-.334.113-.913.236-1.735.124-.822.259-1.701.406-2.636.143-.971.276-1.868.4-2.69.159-.826.277-1.391.351-1.693.019-.149.092-.47.217-.962.158-.532.329-1.103.515-1.712l.556-1.828c.185-.609.315-1.065.39-1.367.193-.537.495-1.251.904-2.144.445-.896.951-1.745 1.517-2.546a15.146 15.146 0 011.889-2.204c.656-.665 1.291-1.033 1.907-1.106.326-.038.59.023.792.182.239.156.409.356.511.601.135.204.237.449.307.735.07.285.118.537.144.754a20.474 20.474 0 01-.15 5.744 26.045 26.045 0 01-1.493 5.572 28.463 28.463 0 01-2.69 5.217 34.374 34.374 0 01-3.438 4.479 8.35 8.35 0 00-.086.671c.002.33-.006.57-.025.719l.012.109c.086.724.335 1.282.748 1.674.449.388.958.658 1.527.811a8.72 8.72 0 001.837.17 18.792 18.792 0 001.968-.122c.326-.038.778-.256 1.355-.654a26.81 26.81 0 001.827-1.317 23.539 23.539 0 011.876-1.377c.613-.402 1.083-.623 1.409-.661.326-.038.592.041.798.236.207.196.329.457.368.783.064.543-.285 1.172-1.045 1.885a19.635 19.635 0 01-2.674 2.077 37.263 37.263 0 01-2.997 1.674c-.935.477-1.565.735-1.891.773-1.061.345-2.073.482-3.035.412-.967-.107-1.823-.355-2.566-.744a7.484 7.484 0 01-1.949-1.588 5.995 5.995 0 01-1.076-2.131l.156-3.818zm8.362-17.393c-.326.038-.674.355-1.045.949a15.395 15.395 0 00-.984 1.933 37.122 37.122 0 00-.85 2.137c-.217.65-.331 1.085-.342 1.307-.079.266-.193.702-.342 1.306a52.166 52.166 0 00-.434 1.924c-.145.641-.292 1.264-.441 1.869-.113.6-.191 1.032-.234 1.294l.272-.032.281-.419c.183-.315.38-.669.591-1.06l.741-1.189c.279-.437.477-.79.592-1.061.119-.234.28-.583.482-1.048.198-.5.327-.809.387-.926.098-.415.235-.964.412-1.645a78.863 78.863 0 00.815-3.841c.121-.528.177-.828.169-.901l-.07-.597zm7.44 16.911c.047-.226.111-.619.192-1.179.113-.601.203-1.236.271-1.904.105-.673.177-1.306.218-1.898.072-.633.132-1.062.179-1.288.115-.894.257-1.865.428-2.913.206-1.053.53-2.045.971-2.978a6.83 6.83 0 011.815-2.361c.801-.681 1.835-1.097 3.102-1.246.471-.055.818.087 1.042.428.255.301.479.641.671 1.023l.095.814c.079.358.127.61.144.754.183 1.557.182 2.952-.003 4.186a10.837 10.837 0 01-1.023 3.479 15.412 15.412 0 01-1.942 3.147 65.746 65.746 0 01-2.77 3.134c-.024.113-.057.3-.099.562-.043.262-.058.447-.045.556l.013.109c.076.651.247 1.164.511 1.536.264.373.592.665.984.876.424.17.875.264 1.355.281a22.894 22.894 0 001.635-.137c1.702-.2 3.304-.627 4.805-1.281a12.695 12.695 0 004.023-2.786 8.44 8.44 0 00.562-.837l.741-1.189c.248-.396.519-.74.815-1.032.292-.328.619-.513.981-.555.362-.043.596.076.703.357.106.282.177.567.211.857.093.796-.071 1.586-.492 2.37-.39.744-.949 1.452-1.678 2.125-.696.632-1.526 1.225-2.489 1.779a23.933 23.933 0 01-2.805 1.431c-.943.405-1.859.733-2.747.984-.852.247-1.586.407-2.202.48-1.919.225-3.566.107-4.942-.355-1.344-.503-2.364-1.686-3.061-3.55l-.169-3.779zm6.508-11.614c-.647.737-1.156 1.403-1.527 1.997a7.502 7.502 0 00-.786 1.745 17.384 17.384 0 00-.386 1.862c-.069.669-.142 1.449-.221 2.339.624-.624 1.121-1.233 1.492-1.828a8.19 8.19 0 00.943-1.817 8.066 8.066 0 00.434-1.924 19.2 19.2 0 00.051-2.374z" fill="#444A4A"/></svg>