<svg width="212" height="43" viewBox="0 0 212 43" fill="none" xmlns="http://www.w3.org/2000/svg">
<path d="M77.75 24.8125L71.6562 28.7812H71.4688C71.2604 28.7812 71.0521 28.7292 70.8438 28.625C70.6562 28.5208 70.5625 28.3438 70.5625 28.0938C70.5625 27.9271 70.6042 27.7812 70.6875 27.6562C70.7917 27.5104 70.9167 27.3854 71.0625 27.2812C71.2292 27.1562 71.5312 26.9688 71.9688 26.7188C72.4062 26.4688 72.8646 26.1979 73.3438 25.9062C73.8229 25.5938 74.2812 25.3125 74.7188 25.0625C75.1771 24.8125 75.4896 24.6354 75.6562 24.5312C75.7396 24.4479 75.8646 24.3542 76.0312 24.25C76.1979 24.125 76.3438 24.0104 76.4688 23.9062C76.6146 23.7812 76.7396 23.6771 76.8438 23.5938C76.9479 23.5104 77 23.4583 77 23.4375L74.5938 18.5625C74.4896 18.4167 74.4271 18.3021 74.4062 18.2188C74.4062 18.1146 74.4062 17.9792 74.4062 17.8125C74.4062 17.1875 74.7083 16.875 75.3125 16.875C75.3958 16.875 75.5833 16.9375 75.875 17.0625C76.1875 17.1667 76.5625 17.3229 77 17.5312C77.4375 17.7188 77.8958 17.9271 78.375 18.1562C78.8542 18.3854 79.2917 18.5938 79.6875 18.7812C80.0833 18.9688 80.4167 19.1354 80.6875 19.2812C80.9583 19.4062 81.0938 19.4688 81.0938 19.4688L83.875 16.5938C83.9375 16.3438 84.1146 16.0417 84.4062 15.6875C84.7188 15.3333 85.0417 14.9583 85.375 14.5625C85.7083 14.1667 86 13.7708 86.25 13.375C86.5 12.9583 86.625 12.5833 86.625 12.25V12.1562L84.4688 7.125C84.2604 6.64583 84.125 6.13542 84.0625 5.59375C84.0208 5.03125 84 4.47917 84 3.9375C84 3.47917 84.0729 3.02083 84.2188 2.5625C84.3646 2.08333 84.5729 1.65625 84.8438 1.28125C85.1354 0.90625 85.4792 0.604167 85.875 0.375C86.2708 0.125 86.7396 0 87.2812 0C87.8438 0 88.3021 0.166667 88.6562 0.5C89.0312 0.8125 89.3229 1.20833 89.5312 1.6875C89.7604 2.16667 89.9167 2.67708 90 3.21875C90.0833 3.73958 90.125 4.21875 90.125 4.65625C90.125 5.90625 89.9792 7.10417 89.6875 8.25C89.4167 9.375 89.0417 10.5312 88.5625 11.7188V12.1562C89.0417 13.0521 89.5312 13.9792 90.0312 14.9375C90.5312 15.8958 90.9792 16.8958 91.375 17.9375C91.7708 18.9583 92.0938 19.9896 92.3438 21.0312C92.5938 22.0521 92.7188 23.0833 92.7188 24.125C92.7188 24.9375 92.5833 25.6979 92.3125 26.4062C92.0625 27.0938 91.6979 27.6979 91.2188 28.2188C90.7396 28.7396 90.1562 29.1458 89.4688 29.4375C88.8021 29.7292 88.0521 29.875 87.2188 29.875C86.2812 29.875 85.3854 29.7396 84.5312 29.4688C83.6979 29.1771 82.8854 28.8021 82.0938 28.3438C81.3229 27.8646 80.5833 27.3229 79.875 26.7188C79.1875 26.1146 78.5417 25.4792 77.9375 24.8125H77.75ZM79.3125 23.75C79.3125 23.7708 79.3646 23.8438 79.4688 23.9688C79.5938 24.0938 79.7292 24.2396 79.875 24.4062C80.0417 24.5521 80.2083 24.7083 80.375 24.875C80.5417 25.0417 80.6875 25.1771 80.8125 25.2812C80.875 25.3438 80.9792 25.4375 81.125 25.5625C81.2917 25.6667 81.4479 25.7917 81.5938 25.9375C81.7604 26.0625 81.9062 26.1875 82.0312 26.3125C82.1771 26.4167 82.2708 26.4792 82.3125 26.5C82.4375 26.5625 82.625 26.6667 82.875 26.8125C83.125 26.9583 83.375 27.1042 83.625 27.25C83.875 27.3958 84.1146 27.5312 84.3438 27.6562C84.5729 27.7812 84.7083 27.8542 84.75 27.875C85.2292 28.0833 85.6667 28.2188 86.0625 28.2812C86.4792 28.3229 86.8958 28.3438 87.3125 28.3438C87.9375 28.3438 88.4688 28.2292 88.9062 28C89.3646 27.75 89.7396 27.4271 90.0312 27.0312C90.3229 26.6146 90.5312 26.1458 90.6562 25.625C90.8021 25.0833 90.875 24.5417 90.875 24C90.875 23.4167 90.8229 22.8125 90.7188 22.1875C90.6354 21.5625 90.4896 20.9688 90.2812 20.4062L87.5625 13.875L85.0938 17.3438L79.3125 23.625V23.75ZM76.875 19.625C76.875 19.6667 76.8854 19.75 76.9062 19.875C76.9479 19.9792 76.9792 20.0521 77 20.0938C77.0833 20.2396 77.1875 20.4375 77.3125 20.6875C77.4583 20.9375 77.5938 21.1771 77.7188 21.4062C77.8646 21.6146 77.9792 21.8125 78.0625 22C78.1667 22.1667 78.2292 22.25 78.25 22.25H78.375C78.4375 22.25 78.5625 22.1667 78.75 22C78.9375 21.8125 79.1354 21.625 79.3438 21.4375C79.5521 21.2292 79.7396 21.0417 79.9062 20.875C80.0729 20.6875 80.1667 20.5833 80.1875 20.5625L80.0312 20.4062L77.3125 19.625H76.875ZM85.6562 3.90625C85.6562 5.07292 85.8333 6.13542 86.1875 7.09375C86.5417 8.03125 86.9896 9.01042 87.5312 10.0312C87.6354 9.96875 87.7292 9.84375 87.8125 9.65625C87.8958 9.44792 87.9688 9.22917 88.0312 9C88.0938 8.75 88.1458 8.52083 88.1875 8.3125C88.2292 8.10417 88.2604 7.97917 88.2812 7.9375C88.2812 7.89583 88.2917 7.79167 88.3125 7.625C88.3542 7.45833 88.3854 7.27083 88.4062 7.0625C88.4271 6.83333 88.4479 6.61458 88.4688 6.40625C88.5104 6.19792 88.5417 6.04167 88.5625 5.9375V5.84375C88.5625 5.76042 88.5521 5.5 88.5312 5.0625C88.5312 4.625 88.5 4.15625 88.4375 3.65625C88.375 3.13542 88.2604 2.67708 88.0938 2.28125C87.9271 1.86458 87.6771 1.65625 87.3438 1.65625C87.0104 1.65625 86.7292 1.71875 86.5 1.84375C86.2708 1.96875 86.0938 2.13542 85.9688 2.34375C85.8646 2.55208 85.7812 2.79167 85.7188 3.0625C85.6771 3.33333 85.6562 3.61458 85.6562 3.90625ZM94.1562 29.0625C94.1562 29 94.1562 28.8438 94.1562 28.5938C94.1562 28.3438 94.1562 28.1771 94.1562 28.0938C93.8021 26.8438 93.75 25.6146 94 24.4062C94.2708 23.1979 94.7396 22.1146 95.4062 21.1562C96.0938 20.1771 96.9583 19.3646 98 18.7188C99.0625 18.0521 100.219 17.6458 101.469 17.5H102.031C102.49 17.5 102.865 17.6042 103.156 17.8125C103.469 18 103.708 18.25 103.875 18.5625C104.062 18.875 104.188 19.2292 104.25 19.625C104.333 20.0208 104.375 20.4167 104.375 20.8125C104.375 21.3542 104.312 21.8854 104.188 22.4062C104.083 22.9062 103.958 23.4167 103.812 23.9375C103.688 24.4583 103.562 24.9792 103.438 25.5C103.333 26 103.281 26.5312 103.281 27.0938V27.2812C103.302 27.3229 103.323 27.4479 103.344 27.6562C103.385 27.8438 103.417 27.9583 103.438 28C103.479 28 103.583 28.0104 103.75 28.0312C103.917 28.0312 104.021 28.0312 104.062 28.0312C104.271 28.0312 104.469 28.0312 104.656 28.0312C104.865 28.0104 105.073 27.9583 105.281 27.875L111.219 25.125C111.24 25.125 111.271 25.125 111.312 25.125C111.375 25.1042 111.417 25.0938 111.438 25.0938C111.646 25.0938 111.812 25.1562 111.938 25.2812C112.083 25.4062 112.156 25.5729 112.156 25.7812C112.156 25.8854 112.146 25.9896 112.125 26.0938C112.125 26.1771 112.073 26.2604 111.969 26.3438C111.823 26.4479 111.552 26.5938 111.156 26.7812C110.781 26.9688 110.375 27.1771 109.938 27.4062C109.5 27.6354 109.083 27.8542 108.688 28.0625C108.312 28.2708 108.042 28.4062 107.875 28.4688C107.583 28.6354 107.26 28.7917 106.906 28.9375C106.552 29.0625 106.188 29.1875 105.812 29.3125C105.438 29.4375 105.062 29.5417 104.688 29.625C104.333 29.6875 104.01 29.7188 103.719 29.7188C103.26 29.7188 102.885 29.6458 102.594 29.5C102.302 29.3333 102.083 29.125 101.938 28.875C101.792 28.6042 101.688 28.2917 101.625 27.9375C101.583 27.5625 101.583 27.1771 101.625 26.7812C101.208 27.1146 100.76 27.4688 100.281 27.8438C99.8021 28.2188 99.3021 28.5625 98.7812 28.875C98.2604 29.1875 97.7292 29.4583 97.1875 29.6875C96.6458 29.9167 96.0938 30.0312 95.5312 30.0312C95.2188 30.0312 94.9375 29.9583 94.6875 29.8125C94.4375 29.6458 94.2604 29.3958 94.1562 29.0625ZM95.8438 28.4062C96.3229 28.4062 96.8542 28.2708 97.4375 28C98.0208 27.7083 98.5938 27.3542 99.1562 26.9375C99.7188 26.5208 100.229 26.0833 100.688 25.625C101.146 25.1458 101.5 24.7188 101.75 24.3438C101.771 23.7188 101.854 23.125 102 22.5625C102.167 21.9792 102.25 21.3854 102.25 20.7812C102.25 20.7396 102.24 20.6771 102.219 20.5938C102.219 20.5104 102.219 20.4479 102.219 20.4062C101.948 20.1771 101.719 20.0417 101.531 20C101.344 19.9583 101.094 19.9375 100.781 19.9375C100.74 19.9375 100.646 19.9375 100.5 19.9375C100.375 19.9375 100.292 19.9479 100.25 19.9688C100.125 20.0729 99.9167 20.2708 99.625 20.5625C99.3333 20.8333 99.0208 21.1354 98.6875 21.4688C98.375 21.8021 98.0729 22.1146 97.7812 22.4062C97.5104 22.6979 97.3229 22.8958 97.2188 23C97.1979 23 97.1562 23.0417 97.0938 23.125C97.0312 23.1875 96.9583 23.2708 96.875 23.375C96.8125 23.4792 96.75 23.5833 96.6875 23.6875C96.6458 23.7708 96.6146 23.8438 96.5938 23.9062L95.8438 27.5625V28.4062ZM111.094 29.25C111.156 28.7292 111.24 28.2396 111.344 27.7812C111.448 27.3021 111.562 26.8333 111.688 26.375C111.812 25.9167 111.948 25.4479 112.094 24.9688C112.26 24.4688 112.438 23.9062 112.625 23.2812V23.125C111.792 23.6042 111.198 23.8438 110.844 23.8438C110.51 23.8438 110.344 23.7188 110.344 23.4688C110.323 23.2188 110.427 22.8854 110.656 22.4688C110.906 22.0521 111.198 21.6667 111.531 21.3125C111.885 20.9583 112.24 20.6771 112.594 20.4688C112.969 20.2604 113.26 20.2292 113.469 20.375C113.719 20.375 113.917 20.4167 114.062 20.5C114.229 20.5833 114.406 20.7083 114.594 20.875C115.073 20.5 115.521 20.1979 115.938 19.9688C116.354 19.7396 116.854 19.625 117.438 19.625C118.354 19.625 119.042 19.8333 119.5 20.25C119.979 20.6667 120.323 21.3333 120.531 22.25C120.885 21.8958 121.208 21.5729 121.5 21.2812C121.792 20.9688 122.104 20.7083 122.438 20.5C122.792 20.2708 123.167 20.1042 123.562 20C123.958 19.875 124.406 19.8125 124.906 19.8125C125.323 19.8125 125.729 19.9688 126.125 20.2812C126.521 20.5938 126.802 20.9375 126.969 21.3125C126.969 21.3958 126.969 21.5833 126.969 21.875C126.969 22.1667 126.969 22.3646 126.969 22.4688C126.969 23.1771 126.885 23.8646 126.719 24.5312C126.552 25.1771 126.469 25.8438 126.469 26.5312C126.469 26.8229 126.5 27.125 126.562 27.4375C126.646 27.7292 126.875 27.875 127.25 27.875C127.75 27.875 128.198 27.7708 128.594 27.5625C129.01 27.3542 129.385 27.1042 129.719 26.8125C130.073 26.5 130.385 26.1667 130.656 25.8125C130.948 25.4583 131.208 25.1354 131.438 24.8438C131.688 24.5312 131.917 24.2708 132.125 24.0625C132.333 23.8542 132.542 23.75 132.75 23.75C132.896 23.75 133.052 23.8125 133.219 23.9375C133.406 24.0417 133.5 24.1771 133.5 24.3438C133.5 24.3646 133.49 24.3958 133.469 24.4375C133.469 24.4792 133.469 24.5104 133.469 24.5312C133.26 25.1771 132.958 25.7917 132.562 26.375C132.167 26.9583 131.708 27.4792 131.188 27.9375C130.667 28.375 130.083 28.7292 129.438 29C128.812 29.25 128.146 29.375 127.438 29.375C126.771 29.375 126.208 29.2917 125.75 29.125C125.292 28.9375 124.938 28.5208 124.688 27.875C124.688 27.8125 124.677 27.6771 124.656 27.4688C124.656 27.2396 124.656 27.1042 124.656 27.0625C124.656 26.2708 124.729 25.5104 124.875 24.7812C125.042 24.0521 125.125 23.3125 125.125 22.5625C125.125 22.5 125.115 22.3646 125.094 22.1562C125.094 21.9479 125.094 21.8125 125.094 21.75C125.01 21.6458 124.875 21.5938 124.688 21.5938C124.521 21.5938 124.365 21.5938 124.219 21.5938C123.781 21.5938 123.365 21.75 122.969 22.0625C122.573 22.375 122.208 22.7708 121.875 23.25C121.542 23.7292 121.24 24.2708 120.969 24.875C120.719 25.4583 120.5 26.0521 120.312 26.6562C120.125 27.2396 119.969 27.7917 119.844 28.3125C119.74 28.8125 119.677 29.2292 119.656 29.5625L119.312 29.875H118.25C118.062 29.875 117.958 29.7812 117.938 29.5938C117.938 29.3854 117.938 29.2292 117.938 29.125C117.938 28.625 117.969 28.125 118.031 27.625C118.115 27.1042 118.198 26.5938 118.281 26.0938C118.385 25.5729 118.479 25.0521 118.562 24.5312C118.646 24.0104 118.698 23.5 118.719 23C118.698 22.8333 118.677 22.6562 118.656 22.4688C118.635 22.2604 118.594 22.0729 118.531 21.9062C118.469 21.7396 118.375 21.6042 118.25 21.5C118.125 21.375 117.948 21.3125 117.719 21.3125C117.385 21.3125 117.062 21.375 116.75 21.5C116.438 21.625 116.146 21.7917 115.875 22C115.625 22.1875 115.396 22.4271 115.188 22.7188C115 22.9896 114.865 23.2917 114.781 23.625L112.906 29.6875L112.625 30C112.625 30 112.562 30 112.438 30C112.312 30.0208 112.219 30.0312 112.156 30.0312C111.927 30.0312 111.688 30.0104 111.438 29.9688C111.208 29.9062 111.094 29.7083 111.094 29.375V29.25ZM132.406 28.2188C132.406 27.4896 132.49 26.7812 132.656 26.0938C132.823 25.4062 133.052 24.7292 133.344 24.0625C133.531 23.3542 133.74 22.6979 133.969 22.0938C134.198 21.4688 134.427 20.9375 134.656 20.5C134.906 20.0417 135.156 19.6875 135.406 19.4375C135.656 19.1667 135.917 19.0312 136.188 19.0312C136.458 19.0312 136.656 19.1146 136.781 19.2812C136.927 19.4271 137 19.6354 137 19.9062V20.0938L135.469 23.75C135.448 23.7917 135.396 23.875 135.312 24C135.229 24.1042 135.188 24.1771 135.188 24.2188V24.3438C135.146 24.4479 135.083 24.6146 135 24.8438C134.938 25.0729 134.865 25.3229 134.781 25.5938C134.698 25.8438 134.615 26.0833 134.531 26.3125C134.469 26.5417 134.427 26.6979 134.406 26.7812C134.365 26.8854 134.333 27.0521 134.312 27.2812C134.292 27.5104 134.281 27.6562 134.281 27.7188C134.281 27.7604 134.292 27.8438 134.312 27.9688C134.333 28.0729 134.365 28.1458 134.406 28.1875C135.198 27.875 136.042 27.4062 136.938 26.7812C137.854 26.1354 138.729 25.4167 139.562 24.625C140.396 23.8333 141.135 23.0104 141.781 22.1562C142.448 21.2812 142.938 20.4375 143.25 19.625C143.292 19.6042 143.396 19.5729 143.562 19.5312C143.729 19.4896 143.833 19.4688 143.875 19.4688C143.896 19.4688 143.917 19.4688 143.938 19.4688C143.979 19.4688 144.01 19.4688 144.031 19.4688C144.24 19.4688 144.417 19.5625 144.562 19.75C144.729 19.9375 144.812 20.125 144.812 20.3125C144.812 20.3333 144.802 20.375 144.781 20.4375C144.781 20.5 144.781 20.5417 144.781 20.5625C144.406 21.4583 144.083 22.3125 143.812 23.125C143.542 23.9375 143.406 24.8125 143.406 25.75C143.406 26.1458 143.417 26.4688 143.438 26.7188C143.479 26.9479 143.573 27.2812 143.719 27.7188C143.74 27.8229 143.781 27.875 143.844 27.875C143.927 27.875 144 27.875 144.062 27.875C144.688 27.875 145.312 27.6354 145.938 27.1562C146.562 26.6771 147.125 26.0938 147.625 25.4062C148.146 24.6979 148.562 23.9583 148.875 23.1875C149.188 22.4167 149.344 21.7396 149.344 21.1562C149.344 20.8438 149.312 20.5521 149.25 20.2812C149.208 19.9896 149.188 19.6979 149.188 19.4062C149.188 19.1354 149.26 18.8958 149.406 18.6875C149.552 18.4792 149.76 18.375 150.031 18.375C150.219 18.375 150.396 18.4375 150.562 18.5625C150.729 18.6667 150.885 18.7917 151.031 18.9375C151.198 19.0833 151.365 19.2188 151.531 19.3438C151.698 19.4688 151.885 19.5625 152.094 19.625C152.594 19.625 152.979 19.625 153.25 19.625C153.542 19.625 153.76 19.625 153.906 19.625C154.073 19.625 154.208 19.6146 154.312 19.5938C154.417 19.5521 154.542 19.5 154.688 19.4375C154.833 19.3542 155.031 19.25 155.281 19.125C155.552 19 155.906 18.8333 156.344 18.625C156.365 18.6042 156.406 18.5938 156.469 18.5938C156.531 18.5938 156.573 18.5938 156.594 18.5938C156.781 18.5938 156.948 18.6562 157.094 18.7812C157.24 18.9062 157.312 19.0729 157.312 19.2812C157.312 19.5104 157.25 19.6979 157.125 19.8438C157.021 19.9688 156.885 20.0833 156.719 20.1875C156.552 20.2708 156.365 20.3542 156.156 20.4375C155.969 20.5 155.792 20.5521 155.625 20.5938C155.146 20.7812 154.771 20.9167 154.5 21C154.25 21.0625 154.052 21.1146 153.906 21.1562C153.781 21.1771 153.677 21.1979 153.594 21.2188C153.51 21.2188 153.385 21.2188 153.219 21.2188C153.073 21.2188 152.865 21.2292 152.594 21.25C152.344 21.25 151.979 21.2708 151.5 21.3125C151.458 21.3125 151.396 21.3333 151.312 21.375C151.25 21.4167 151.208 21.4479 151.188 21.4688C151.062 22.4062 150.771 23.3646 150.312 24.3438C149.875 25.3021 149.302 26.1875 148.594 27C147.885 27.7917 147.062 28.4375 146.125 28.9375C145.208 29.4375 144.25 29.6875 143.25 29.6875C143.042 29.6875 142.844 29.6042 142.656 29.4375C142.49 29.25 142.333 29.0417 142.188 28.8125C142.062 28.5833 141.958 28.3542 141.875 28.125C141.792 27.875 141.74 27.6875 141.719 27.5625C141.698 27.4792 141.667 27.3229 141.625 27.0938C141.604 26.8646 141.573 26.6146 141.531 26.3438C141.51 26.0729 141.479 25.8333 141.438 25.625C141.417 25.3958 141.406 25.2292 141.406 25.125C141.031 25.5208 140.542 26 139.938 26.5625C139.333 27.1042 138.677 27.6354 137.969 28.1562C137.26 28.6562 136.542 29.0938 135.812 29.4688C135.104 29.8229 134.458 30 133.875 30C133.333 30 132.948 29.8125 132.719 29.4375C132.51 29.0625 132.406 28.6562 132.406 28.2188ZM156.312 29.0625C156.312 29 156.312 28.8438 156.312 28.5938C156.312 28.3438 156.312 28.1771 156.312 28.0938C155.958 26.8438 155.906 25.6146 156.156 24.4062C156.427 23.1979 156.896 22.1146 157.562 21.1562C158.25 20.1771 159.115 19.3646 160.156 18.7188C161.219 18.0521 162.375 17.6458 163.625 17.5H164.188C164.646 17.5 165.021 17.6042 165.312 17.8125C165.625 18 165.865 18.25 166.031 18.5625C166.219 18.875 166.344 19.2292 166.406 19.625C166.49 20.0208 166.531 20.4167 166.531 20.8125C166.531 21.3542 166.469 21.8854 166.344 22.4062C166.24 22.9062 166.115 23.4167 165.969 23.9375C165.844 24.4583 165.719 24.9792 165.594 25.5C165.49 26 165.438 26.5312 165.438 27.0938V27.2812C165.458 27.3229 165.479 27.4479 165.5 27.6562C165.542 27.8438 165.573 27.9583 165.594 28C165.635 28 165.74 28.0104 165.906 28.0312C166.073 28.0312 166.177 28.0312 166.219 28.0312C166.427 28.0312 166.625 28.0312 166.812 28.0312C167.021 28.0104 167.229 27.9583 167.438 27.875L173.375 25.125C173.396 25.125 173.427 25.125 173.469 25.125C173.531 25.1042 173.573 25.0938 173.594 25.0938C173.802 25.0938 173.969 25.1562 174.094 25.2812C174.24 25.4062 174.312 25.5729 174.312 25.7812C174.312 25.8854 174.302 25.9896 174.281 26.0938C174.281 26.1771 174.229 26.2604 174.125 26.3438C173.979 26.4479 173.708 26.5938 173.312 26.7812C172.938 26.9688 172.531 27.1771 172.094 27.4062C171.656 27.6354 171.24 27.8542 170.844 28.0625C170.469 28.2708 170.198 28.4062 170.031 28.4688C169.74 28.6354 169.417 28.7917 169.062 28.9375C168.708 29.0625 168.344 29.1875 167.969 29.3125C167.594 29.4375 167.219 29.5417 166.844 29.625C166.49 29.6875 166.167 29.7188 165.875 29.7188C165.417 29.7188 165.042 29.6458 164.75 29.5C164.458 29.3333 164.24 29.125 164.094 28.875C163.948 28.6042 163.844 28.2917 163.781 27.9375C163.74 27.5625 163.74 27.1771 163.781 26.7812C163.365 27.1146 162.917 27.4688 162.438 27.8438C161.958 28.2188 161.458 28.5625 160.938 28.875C160.417 29.1875 159.885 29.4583 159.344 29.6875C158.802 29.9167 158.25 30.0312 157.688 30.0312C157.375 30.0312 157.094 29.9583 156.844 29.8125C156.594 29.6458 156.417 29.3958 156.312 29.0625ZM158 28.4062C158.479 28.4062 159.01 28.2708 159.594 28C160.177 27.7083 160.75 27.3542 161.312 26.9375C161.875 26.5208 162.385 26.0833 162.844 25.625C163.302 25.1458 163.656 24.7188 163.906 24.3438C163.927 23.7188 164.01 23.125 164.156 22.5625C164.323 21.9792 164.406 21.3854 164.406 20.7812C164.406 20.7396 164.396 20.6771 164.375 20.5938C164.375 20.5104 164.375 20.4479 164.375 20.4062C164.104 20.1771 163.875 20.0417 163.688 20C163.5 19.9583 163.25 19.9375 162.938 19.9375C162.896 19.9375 162.802 19.9375 162.656 19.9375C162.531 19.9375 162.448 19.9479 162.406 19.9688C162.281 20.0729 162.073 20.2708 161.781 20.5625C161.49 20.8333 161.177 21.1354 160.844 21.4688C160.531 21.8021 160.229 22.1146 159.938 22.4062C159.667 22.6979 159.479 22.8958 159.375 23C159.354 23 159.312 23.0417 159.25 23.125C159.188 23.1875 159.115 23.2708 159.031 23.375C158.969 23.4792 158.906 23.5833 158.844 23.6875C158.802 23.7708 158.771 23.8438 158.75 23.9062L158 27.5625V28.4062ZM171.625 37.875C171.625 36.5208 171.927 35.2708 172.531 34.125C173.115 33 173.865 31.9688 174.781 31.0312C175.719 30.1146 176.75 29.2917 177.875 28.5625C179.021 27.8333 180.135 27.1979 181.219 26.6562L182.125 23.75C182.021 23.875 181.812 24.0833 181.5 24.375C181.208 24.6667 180.896 24.9792 180.562 25.3125C180.229 25.625 179.906 25.9271 179.594 26.2188C179.281 26.4896 179.062 26.6771 178.938 26.7812C178.688 26.9896 178.385 27.2292 178.031 27.5C177.677 27.7708 177.292 28.0312 176.875 28.2812C176.479 28.5104 176.073 28.7083 175.656 28.875C175.24 29.0208 174.865 29.0938 174.531 29.0938C174.073 29.0938 173.771 28.9896 173.625 28.7812C173.5 28.5521 173.438 28.2292 173.438 27.8125C173.438 27.4792 173.458 27.1354 173.5 26.7812C173.562 26.4271 173.552 26.0729 173.469 25.7188L174.688 22.4062C174.875 22.2188 175.052 21.9271 175.219 21.5312C175.406 21.1354 175.583 20.7396 175.75 20.3438C175.938 19.9479 176.125 19.6042 176.312 19.3125C176.521 19.0208 176.74 18.875 176.969 18.875C177.219 18.875 177.427 18.9479 177.594 19.0938C177.781 19.2396 177.875 19.4479 177.875 19.7188C177.875 19.9271 177.844 20.1146 177.781 20.2812C177.74 20.4271 177.667 20.625 177.562 20.875C177.292 21.4375 177.021 21.9688 176.75 22.4688C176.5 22.9688 176.26 23.4688 176.031 23.9688C175.823 24.4688 175.646 24.9896 175.5 25.5312C175.375 26.0521 175.312 26.6354 175.312 27.2812H175.438C175.438 27.2812 175.5 27.25 175.625 27.1875C175.75 27.1042 175.885 27.0208 176.031 26.9375C176.198 26.8333 176.365 26.7292 176.531 26.625C176.698 26.5208 176.844 26.4271 176.969 26.3438C178.115 25.5938 179.125 24.7188 180 23.7188C180.875 22.6979 181.74 21.6458 182.594 20.5625C182.677 20.4375 182.75 20.3438 182.812 20.2812C182.875 20.2188 182.927 20.1771 182.969 20.1562C183.01 20.1146 183.062 20.0938 183.125 20.0938C183.188 20.0938 183.281 20.0938 183.406 20.0938C183.698 20.0938 183.927 20.1562 184.094 20.2812C184.281 20.3854 184.396 20.6354 184.438 21.0312C184.458 21.3021 184.438 21.6354 184.375 22.0312C184.312 22.4062 184.229 22.7812 184.125 23.1562C184.021 23.5312 183.906 23.9062 183.781 24.2812C183.677 24.6354 183.583 24.9167 183.5 25.125V25.5938C183.542 25.5729 183.635 25.5417 183.781 25.5C183.948 25.4583 184.062 25.4271 184.125 25.4062C184.25 25.3854 184.594 25.2708 185.156 25.0625C185.719 24.8542 186.323 24.6354 186.969 24.4062C187.635 24.1562 188.25 23.9271 188.812 23.7188C189.375 23.5104 189.729 23.375 189.875 23.3125H189.938C190.083 23.3125 190.208 23.3646 190.312 23.4688C190.438 23.5729 190.5 23.6979 190.5 23.8438C190.5 23.9896 190.448 24.1146 190.344 24.2188C190.26 24.3229 190.156 24.4167 190.031 24.5C189.906 24.5625 189.771 24.625 189.625 24.6875C189.479 24.75 189.354 24.8021 189.25 24.8438C189.104 24.9271 188.896 25.0312 188.625 25.1562C188.354 25.2604 188.042 25.3854 187.688 25.5312C187.354 25.6562 187 25.8021 186.625 25.9688C186.25 26.1354 185.885 26.2917 185.531 26.4375C184.677 26.7917 183.75 27.1667 182.75 27.5625L180 37.9375C179.875 38.4375 179.635 38.9583 179.281 39.5C178.948 40.0417 178.552 40.5417 178.094 41C177.635 41.4583 177.125 41.8229 176.562 42.0938C176.021 42.3854 175.469 42.5312 174.906 42.5312C174.323 42.5312 173.823 42.375 173.406 42.0625C172.99 41.7708 172.646 41.3854 172.375 40.9062C172.104 40.4479 171.917 39.9479 171.812 39.4062C171.688 38.8646 171.625 38.3542 171.625 37.875ZM173.312 37.875C173.312 38.1458 173.333 38.4479 173.375 38.7812C173.438 39.1146 173.542 39.4375 173.688 39.75C173.833 40.0625 174.01 40.3229 174.219 40.5312C174.448 40.7396 174.74 40.8438 175.094 40.8438C175.552 40.8438 175.969 40.6979 176.344 40.4062C176.74 40.1354 177.083 39.7917 177.375 39.375C177.688 38.9792 177.948 38.5521 178.156 38.0938C178.365 37.6354 178.531 37.2292 178.656 36.875C178.719 36.625 178.812 36.2708 178.938 35.8125C179.062 35.375 179.177 34.9375 179.281 34.5C179.406 34.0625 179.51 33.6667 179.594 33.3125C179.677 32.9792 179.719 32.7812 179.719 32.7188V32.5938L180.625 28.6562C179.792 28.9271 178.938 29.3854 178.062 30.0312C177.208 30.6771 176.427 31.4271 175.719 32.2812C175.01 33.1354 174.427 34.0521 173.969 35.0312C173.531 36.0104 173.312 36.9583 173.312 37.875ZM189.375 24.3438C189.375 24.3438 189.385 24.3333 189.406 24.3125C189.448 24.2708 189.479 24.2396 189.5 24.2188C189.542 24.0312 189.625 23.7083 189.75 23.25C189.875 22.7917 190.01 22.3021 190.156 21.7812C190.302 21.2396 190.438 20.7396 190.562 20.2812C190.708 19.8229 190.812 19.5104 190.875 19.3438C190.896 19.2604 190.958 19.0833 191.062 18.8125C191.188 18.5208 191.323 18.2083 191.469 17.875C191.615 17.5417 191.76 17.2083 191.906 16.875C192.052 16.5417 192.156 16.2917 192.219 16.125C192.365 15.8333 192.583 15.4479 192.875 14.9688C193.188 14.4896 193.531 14.0417 193.906 13.625C194.302 13.1875 194.708 12.8125 195.125 12.5C195.542 12.1667 195.927 12 196.281 12C196.469 12 196.615 12.0521 196.719 12.1562C196.844 12.2604 196.927 12.3854 196.969 12.5312C197.031 12.6562 197.073 12.8021 197.094 12.9688C197.115 13.1354 197.125 13.2812 197.125 13.4062C197.125 14.4896 196.969 15.5729 196.656 16.6562C196.365 17.7188 195.958 18.7396 195.438 19.7188C194.917 20.6979 194.292 21.625 193.562 22.5C192.854 23.3542 192.104 24.125 191.312 24.8125C191.292 24.875 191.26 25 191.219 25.1875C191.198 25.375 191.177 25.5104 191.156 25.5938V25.6562C191.156 26.0729 191.26 26.4062 191.469 26.6562C191.698 26.9062 191.969 27.0938 192.281 27.2188C192.594 27.3229 192.938 27.3958 193.312 27.4375C193.708 27.4792 194.083 27.5 194.438 27.5C194.625 27.5 194.896 27.4062 195.25 27.2188C195.625 27.0312 196 26.8229 196.375 26.5938C196.771 26.3438 197.156 26.125 197.531 25.9375C197.906 25.75 198.188 25.6562 198.375 25.6562C198.562 25.6562 198.708 25.7188 198.812 25.8438C198.917 25.9688 198.969 26.125 198.969 26.3125C198.969 26.625 198.729 26.9583 198.25 27.3125C197.771 27.6667 197.219 28 196.594 28.3125C195.969 28.6042 195.365 28.8542 194.781 29.0625C194.219 29.2708 193.844 29.375 193.656 29.375C193.031 29.5 192.448 29.5104 191.906 29.4062C191.365 29.2812 190.896 29.0833 190.5 28.8125C190.104 28.5208 189.771 28.1771 189.5 27.7812C189.25 27.3646 189.094 26.9375 189.031 26.5L189.375 24.3438ZM195.281 15.0312C195.094 15.0312 194.875 15.1875 194.625 15.5C194.396 15.7917 194.167 16.1354 193.938 16.5312C193.708 16.9271 193.5 17.3125 193.312 17.6875C193.146 18.0417 193.052 18.2812 193.031 18.4062C192.969 18.5521 192.875 18.7917 192.75 19.125C192.625 19.4583 192.5 19.8125 192.375 20.1875C192.25 20.5417 192.125 20.8854 192 21.2188C191.896 21.5521 191.823 21.7917 191.781 21.9375H191.938C191.938 21.9375 192 21.8646 192.125 21.7188C192.25 21.5521 192.385 21.3646 192.531 21.1562C192.698 20.9479 192.865 20.7396 193.031 20.5312C193.219 20.3021 193.354 20.1146 193.438 19.9688C193.521 19.8438 193.635 19.6562 193.781 19.4062C193.927 19.1354 194.021 18.9688 194.062 18.9062C194.146 18.6771 194.26 18.375 194.406 18C194.552 17.6042 194.688 17.2188 194.812 16.8438C194.938 16.4688 195.042 16.1458 195.125 15.875C195.229 15.5833 195.281 15.4167 195.281 15.375V15.0312ZM198.375 25.125C198.417 25 198.479 24.7812 198.562 24.4688C198.667 24.1354 198.76 23.7812 198.844 23.4062C198.948 23.0312 199.031 22.6771 199.094 22.3438C199.177 21.9896 199.24 21.75 199.281 21.625C199.406 21.125 199.552 20.5833 199.719 20C199.906 19.4167 200.156 18.875 200.469 18.375C200.781 17.875 201.177 17.4688 201.656 17.1562C202.156 16.8229 202.771 16.6562 203.5 16.6562C203.771 16.6562 203.958 16.7604 204.062 16.9688C204.188 17.1562 204.292 17.3646 204.375 17.5938C204.375 17.6771 204.375 17.8333 204.375 18.0625C204.396 18.2708 204.406 18.4167 204.406 18.5C204.406 19.3958 204.312 20.1875 204.125 20.875C203.958 21.5625 203.688 22.1979 203.312 22.7812C202.958 23.3646 202.521 23.9167 202 24.4375C201.479 24.9375 200.885 25.4688 200.219 26.0312C200.198 26.0938 200.167 26.1979 200.125 26.3438C200.083 26.4896 200.062 26.5938 200.062 26.6562V26.7188C200.062 27.0938 200.125 27.3958 200.25 27.625C200.375 27.8542 200.542 28.0417 200.75 28.1875C200.979 28.3125 201.229 28.3958 201.5 28.4375C201.792 28.4583 202.104 28.4688 202.438 28.4688C203.417 28.4688 204.354 28.3333 205.25 28.0625C206.146 27.7917 206.969 27.3542 207.719 26.75C207.823 26.6458 207.948 26.5 208.094 26.3125C208.26 26.1042 208.427 25.8958 208.594 25.6875C208.76 25.4792 208.938 25.3021 209.125 25.1562C209.312 24.9896 209.51 24.9062 209.719 24.9062C209.927 24.9062 210.052 24.9896 210.094 25.1562C210.135 25.3229 210.156 25.4896 210.156 25.6562C210.156 26.1146 210.01 26.5521 209.719 26.9688C209.448 27.3646 209.083 27.7292 208.625 28.0625C208.188 28.375 207.677 28.6562 207.094 28.9062C206.531 29.1562 205.969 29.3646 205.406 29.5312C204.844 29.6979 204.302 29.8229 203.781 29.9062C203.281 29.9896 202.854 30.0312 202.5 30.0312C201.396 30.0312 200.469 29.8542 199.719 29.5C198.99 29.125 198.49 28.3854 198.219 27.2812L198.375 25.125ZM202.844 18.9688C202.427 19.3438 202.094 19.6875 201.844 20C201.615 20.2917 201.427 20.6042 201.281 20.9375C201.156 21.25 201.042 21.5938 200.938 21.9688C200.854 22.3438 200.76 22.7812 200.656 23.2812C201.052 22.9688 201.375 22.6562 201.625 22.3438C201.896 22.0312 202.115 21.7083 202.281 21.375C202.448 21.0417 202.573 20.6875 202.656 20.3125C202.74 19.9167 202.802 19.4688 202.844 18.9688Z" fill="black"/>
<path d="M6.18772 16.568C6.66536 16.4309 7.17735 16.4816 7.61882 16.7097L10.0821 17.9827L15.7533 20.1537L22.0546 23.4102L24.316 24.5789C24.903 24.8822 25.5443 25.0662 26.2028 25.1202L38.438 26.1239L54.5321 26.6019C55.3045 26.6248 55.645 27.5854 55.0596 28.0897V28.0897C54.9059 28.222 54.7098 28.2948 54.507 28.2948H53.5611H53.9978C54.1226 28.2948 54.2433 28.3396 54.3378 28.4211V28.4211C54.7097 28.7414 54.4729 29.3513 53.9823 29.3367L37.1777 28.8376L24.3326 27.3289C23.6611 27.25 23.0125 27.0357 22.4261 26.699L16.3642 23.2182C15.9589 22.9855 15.523 22.8107 15.0692 22.6991L7.16096 20.7529C7.00834 20.7154 6.85998 20.6622 6.71821 20.5944L5.88462 20.1955C4.26911 19.4225 4.46633 17.0622 6.18772 16.568V16.568Z" fill="#2D635E"/>
<path d="M10.1489 30.1635C10.1219 30.1393 10.1346 30.0945 10.1703 30.0882L13.4412 29.5103C13.9297 29.424 14.4026 29.2655 14.8444 29.04L17.0136 27.9328L20.4268 25.8498C21.2966 25.319 22.2959 25.0381 23.3149 25.0381V25.0381V25.0381C23.8994 25.0381 24.4282 24.6916 24.6615 24.1557L24.9035 23.5998C24.9057 23.5947 24.9115 23.5922 24.9167 23.594L29.5661 25.1959C30.3971 25.4822 30.7334 26.4766 30.2467 27.2085V27.2085C30.2465 27.2089 30.2462 27.2093 30.2461 27.2097V27.2097C29.6409 28.6255 28.6454 29.8438 27.3776 30.7173L27.088 30.9169C26.4766 31.3382 25.8173 31.6852 25.124 31.9506L22.3869 32.9984V32.9984C18.2809 34.3422 13.7699 33.3977 10.5477 30.5197L10.1489 30.1635Z" fill="#2D635E"/>
<path d="M27.0373 8.77392C26.9356 8.58937 26.6569 8.65217 26.6208 8.86777L25.9615 12.8056L25.5394 15.6468L24.8759 18.3528C24.409 20.257 24.2056 22.2053 24.2719 24.1391V24.1391C24.2726 24.1592 24.2791 24.1784 24.2907 24.1941L24.8181 24.9155L25.4457 25.9839C25.4495 25.9904 25.4555 25.9951 25.4626 25.9973L26.6709 26.3588C26.95 26.4422 27.2018 26.5944 27.4053 26.8024L27.866 27.2734C28.822 28.2507 30.5164 27.4983 30.5636 26.0755V26.0755C30.5665 25.9876 30.5765 25.8998 30.5933 25.8128L30.828 24.6032C31.2273 22.5445 31.2461 20.4475 30.8835 18.4234L30.7517 17.6876C30.3694 15.554 29.6508 13.516 28.6234 11.6519L27.0373 8.77392Z" fill="#2D635E"/>
<path d="M2.38845 7.13522C3.49013 5.61699 5.11774 4.56347 6.95397 4.18006L9.02818 3.74695C10.3559 3.46973 11.6321 2.98695 12.8109 2.31604L15.0985 1.01404C15.1092 1.00793 15.1225 1.01602 15.1219 1.02836L15.0949 1.67296C14.918 5.88488 12.6954 9.74501 9.14151 12.0125V12.0125V12.0125C7.70659 12.8364 7.12071 14.6075 7.78122 16.1247L8.50692 17.7915C8.50979 17.7981 8.51014 17.8055 8.5079 17.8123L7.76089 20.0889C7.64197 20.4513 7.3037 20.6963 6.92227 20.6963V20.6963C6.51032 20.6963 6.10041 20.6387 5.70446 20.525L3.7851 19.9739C3.78223 19.9731 3.77948 19.9719 3.77689 19.9705V19.9705C1.48235 18.6529 0.184962 16.1024 0.471264 13.472L0.629302 12.0201C0.629851 12.015 0.631175 12.0101 0.633226 12.0054L0.946654 11.2959C0.948736 11.2912 0.949811 11.2861 0.949811 11.281V11.281C0.949811 9.87499 1.39449 8.50501 2.22024 7.36704L2.38845 7.13522Z" fill="#2D635E"/>
<path d="M4.17557 8.04855C3.59359 8.52141 3.30623 9.59065 3.2353 10.0662C3.12959 10.5325 2.99362 10.2568 2.83065 10.0217C3.03768 10.0625 3.34879 9.97684 2.93704 9.30848C2.52529 8.64011 2.90734 8.07897 3.14983 7.88194C3.3214 8.16043 3.70709 8.43209 3.87732 7.29086C4.09011 5.86433 5.84697 6.94415 5.22588 6.82197C4.72902 6.72422 4.53384 7.17529 4.49836 7.41304C4.70539 7.45377 4.75755 7.57568 4.17557 8.04855Z" fill="white" stroke="white" stroke-width="0.1"/>
<path d="M14.0546 31.5237C14.517 31.8376 15.459 32.09 15.8722 32.177C16.2811 32.2783 16.0593 32.3066 15.8751 32.3516C15.889 32.2644 15.7845 32.1161 15.2552 32.2212C14.726 32.3263 14.2083 32.091 14.0156 31.9602C14.2362 31.9165 14.4293 31.7767 13.4376 31.5679C12.198 31.307 12.9432 30.652 12.9014 30.9138C12.868 31.1233 13.2728 31.2626 13.4794 31.3061C13.4933 31.2189 13.5922 31.2099 14.0546 31.5237Z" fill="white" stroke="white" stroke-width="0.1"/>
</svg>
