<svg width="312" height="417" viewBox="0 0 312 417" fill="none" xmlns="http://www.w3.org/2000/svg">
<path d="M27.5634 52.5124C27.5634 52.5124 24.5614 54.0125 22.5601 52.5124C22.1493 52.2044 21.6794 51.7885 21.2129 51.285M31.5663 21.8277C30.3989 41.3295 22.9606 93.6707 2.54705 147.021M31.5663 21.8277C30.9008 15.0255 29.4977 13.5953 28.5642 13.7764M31.5663 21.8277C36.0692 46.3754 46.6762 97.1074 53.0804 103.653M2.54705 147.021C1.37961 150.158 -0.254807 167.396 2.54705 211.254L4.04798 244.598M2.54705 147.021L71.5927 176.478M2.54705 147.021C22.2218 140.066 59.873 121.655 53.0804 103.653M21.2129 51.285C19.4066 49.3357 17.6495 46.0748 19.5581 42.6933C21.226 39.0111 24.5617 30.4194 24.5617 25.5099C24.5617 20.97 26.5582 16.5467 27.7819 14.5045C27.9642 14.2004 28.1746 13.8741 28.5182 13.7867C28.5334 13.7828 28.5487 13.7794 28.5642 13.7764M21.2129 51.285C22.6627 50.6031 25.4623 48.0938 25.062 43.5115C24.6784 39.1203 26.868 32.2492 27.0512 31.6841C27.0602 31.6563 27.0678 31.6341 27.0774 31.6065C27.7446 29.6797 28.7557 25.5826 27.5634 24.2825C26.3628 22.9733 28.7311 18.0092 30.0653 15.6908M74.5947 415L11.5195 388.43C9.71177 387.668 8.5163 385.92 8.46242 383.959L5.54892 277.942L4.04798 244.598M74.5947 415L296.316 387.724C298.839 387.414 300.728 385.31 300.708 382.768C300.11 305.993 301.006 159.434 309.25 153.976M74.5947 415L71.5927 176.478M309.25 153.976C317.656 148.412 293.74 67.9229 280.731 28.3738C279.064 24.6916 276.228 15.9363 278.23 10.3722C280.231 4.80801 112.62 10.3233 28.5642 13.7764M309.25 153.976L71.5927 176.478M53.0804 103.653C59.4847 110.199 68.0904 154.931 71.5927 176.478M71.5927 176.478C48.2777 177.16 2.12766 191.739 4.04798 244.598M97.5 385C95 382.5 87.7 377.6 92.5 352C96.1959 332.289 109.219 324.158 119.428 321.536C123.046 320.607 125.416 324.415 123.704 327.734C118.473 337.876 115.744 344.02 114.722 347.5M97.5 385C104 389.5 121.5 389.2 131.5 356C137.553 335.903 128.129 343.244 121 348.268C116.492 351.445 112.902 353.697 114.722 347.5M97.5 385C97.3146 374.167 111.5 361 114.722 347.5M275.627 172.255C268.853 168.022 251.814 168.916 242 201.5C235.947 221.597 245.371 214.256 252.5 209.232C255.552 207.081 258 206.103 259 206.386M275.627 172.255C275.881 172.414 276.104 172.605 276.321 172.812C279.063 175.424 285.608 180.922 281 205.5C277.304 225.211 264.281 233.342 254.072 235.964C250.454 236.893 248.095 233.064 249.807 229.744C258.037 213.787 259.5 206 259 206.386M275.627 172.255C260.5 181 258 206.103 259 206.386M240.428 378.732C230.219 376.11 217.196 367.98 213.5 348.268C208.7 322.668 216 317.768 218.5 315.268M240.428 378.732C244.046 379.661 246.416 375.853 244.704 372.534M240.428 378.732C265.17 399.503 258.785 364.411 252.5 344.268M218.5 315.268C225 310.768 242.5 311.068 252.5 344.268M218.5 315.268C218.32 325.806 231.735 338.55 235.434 351.662M252.5 344.268C258.553 364.365 249.129 357.025 242 352M242 352C237.786 349.03 234.374 346.869 235.434 351.662M242 352C250.303 357.189 262.467 368.561 244.704 372.534M235.434 351.662C235.508 351.996 235.603 352.364 235.722 352.768M235.434 351.662C235.538 352.031 235.634 352.399 235.722 352.768M235.722 352.768C236.744 356.248 239.473 362.393 244.704 372.534M126.794 196C137.003 198.622 150.026 206.752 153.722 226.464C158.33 251.042 151.785 256.54 149.043 259.152C148.826 259.359 148.603 259.55 148.349 259.709C141.575 263.941 124.536 263.048 114.722 230.464M126.794 196C123.176 195.071 120.806 198.879 122.518 202.198C127.749 212.339 130.478 218.484 131.5 221.964C131.588 222.333 131.684 222.701 131.788 223.07C132.848 227.863 129.436 225.702 125.222 222.732C118.093 217.707 108.669 210.367 114.722 230.464M126.794 196C107.029 189.6 110.511 216.309 114.722 230.464M9 138L14.5 124.5M31.5 45.5C30.432 55 27.6492 74.9 25.062 78.5M55.5 115.5C59.5 132.425 67.5 167.32 67.5 171.5M5 152C4.5 160.333 3.8 178.6 5 185M9.5 243.5L11 277.942M12 379C11.5 385.5 11.5 385.5 23.5 389.5M12 373L11 345M16.5 367V376M8.5 162.5C8.16667 169 7.8 182.4 9 184M34.5 53.5C33.3333 62.3333 30.5 80 28.5 80M7 142C7.83333 142.333 10.7 141.3 15.5 134.5" stroke="#444A4A" stroke-width="2"/>
<path d="M78.249 85.1433C77.4878 82.6842 77.2482 80.0456 77.5304 77.2278C77.8536 74.3579 78.552 71.4674 79.6255 68.5565C80.6991 65.6455 82.1122 62.8126 83.8649 60.0577C85.6121 57.2563 87.5291 54.6945 89.6158 52.3724C91.7492 50.0447 94.0139 48.032 96.4101 46.3342C98.8529 44.631 101.278 43.3782 103.685 42.5758C104.43 42.4882 105.109 42.6443 105.722 43.0442C106.382 43.4385 106.963 43.9602 107.464 44.6093C107.965 45.2583 108.355 45.9676 108.635 46.7371C108.96 47.5011 109.162 48.209 109.238 48.8608L110.035 55.6344C110.09 56.0999 109.939 56.4244 109.583 56.6079C109.222 56.7448 108.901 56.8297 108.622 56.8626C108.296 56.9009 107.895 56.9009 107.418 56.8625C106.942 56.8242 106.674 56.549 106.613 56.0369C106.592 55.8506 106.533 55.5508 106.437 55.1373C106.341 54.7238 106.24 54.2637 106.133 53.7571C106.026 53.2505 105.922 52.7671 105.821 52.307C105.766 51.8415 105.73 51.5389 105.714 51.3992C105.703 51.3061 105.644 51.0063 105.537 50.4996C105.472 49.941 105.359 49.3878 105.201 48.8401C105.042 48.2924 104.842 47.7968 104.601 47.3531C104.36 46.9095 104.1 46.7041 103.82 46.737L101.376 47.0244C101.376 47.0244 101.181 47.1655 100.789 47.4475C100.392 47.683 99.9304 47.9733 99.4046 48.3183C98.8788 48.6633 98.3557 49.0317 97.8354 49.4232C97.3096 49.7683 96.9207 50.0736 96.6688 50.3392C96.5401 50.4488 96.3265 50.6391 96.028 50.9102C95.776 51.1758 95.5008 51.4442 95.2023 51.7153C94.9038 51.9864 94.6286 52.2547 94.3767 52.5204C94.1247 52.786 93.9344 52.9736 93.8057 53.0831C91.5765 55.7996 89.654 58.3148 88.0383 60.6288C86.417 62.8962 85.1094 65.2211 84.1152 67.6036C83.1211 69.986 82.4515 72.5191 82.1064 75.2028C81.8024 77.8344 81.8584 80.9193 82.2746 84.4574C82.4389 85.8541 82.6921 87.4054 83.0344 89.1115C83.4177 90.7655 83.8764 92.4579 84.4103 94.1886C84.9909 95.9139 85.7083 97.5994 86.5627 99.2453C87.4115 100.845 88.4015 102.238 89.5324 103.427C90.6634 104.615 91.9737 105.523 93.4634 106.15C94.9531 106.778 96.6523 106.979 98.5611 106.754L100.097 106.574C102.11 105.629 103.875 104.784 105.392 104.039C106.95 103.243 108.322 102.468 109.508 101.715C110.741 100.956 111.828 100.167 112.77 99.3486C113.753 98.4778 114.673 97.4728 115.53 96.3336C116.434 95.189 117.336 93.8321 118.237 92.263C119.138 90.6938 120.149 88.8522 121.269 86.7382C121.315 86.7327 121.385 86.7245 121.478 86.7135C121.566 86.656 121.656 86.6218 121.75 86.6108C122.588 86.5123 123.056 86.882 123.154 87.72C123.28 88.7907 123.143 90.034 122.743 91.4497C122.385 92.8135 121.577 94.3717 120.32 96.1242C119.109 97.8714 117.328 99.78 114.976 101.85C112.664 103.868 109.634 105.995 105.885 108.229C105.179 108.643 104.56 108.999 104.028 109.297C103.492 109.549 102.973 109.752 102.472 109.905C101.97 110.058 101.44 110.168 100.882 110.234C100.375 110.34 99.796 110.432 99.1443 110.509C96.7235 110.794 94.556 110.624 92.6418 109.999C90.7742 109.369 89.1065 108.433 87.6387 107.19C86.1654 105.9 84.8797 104.399 83.7817 102.687C82.7247 100.924 81.8196 99.048 81.0666 97.0598C80.3081 95.0251 79.692 92.9973 79.2183 90.9763C78.7857 88.9032 78.4626 86.9589 78.249 85.1433ZM123.006 102.109C123.001 102.063 123.005 101.897 123.018 101.612C123.032 101.327 123.046 101.043 123.06 100.758C123.068 100.426 123.081 100.142 123.101 99.9034C123.114 99.6186 123.116 99.4296 123.105 99.3365L123.072 99.0572L123.023 98.6382L123.483 94.1239C124.077 92.3548 124.703 90.6529 125.36 89.018C126.064 87.3777 126.906 85.9099 127.886 84.6147C128.867 83.3194 130.038 82.2377 131.399 81.3697C132.806 80.4961 134.558 79.9361 136.652 79.6897C137.071 79.6405 137.6 79.7199 138.238 79.928C138.917 80.0841 139.581 80.3128 140.23 80.6141C140.926 80.9098 141.554 81.2371 142.116 81.5958C142.718 81.9026 143.178 82.2024 143.496 82.4955C144.912 82.0929 145.945 81.8534 146.597 81.7767C147.243 81.6535 147.799 81.5645 148.265 81.5097C148.725 81.4084 149.203 81.2578 149.698 81.0579C150.241 80.8525 151.043 80.4514 152.106 79.8544C152.87 79.5286 153.624 79.3218 154.369 79.2342C154.695 79.1959 155.014 79.3 155.326 79.5464C155.685 79.7874 155.886 80.0941 155.93 80.4666C155.985 80.9321 155.871 81.3703 155.589 81.781C155.307 82.1918 154.938 82.4711 154.484 82.619L145.985 85.6009L145.258 86.0405C145.507 88.5598 145.23 91.0231 144.428 93.4302C143.626 95.8373 142.441 98.0061 140.875 99.9367C139.308 101.867 137.421 103.482 135.214 104.78C133.001 106.031 130.638 106.805 128.124 107.1C127.938 107.122 127.633 107.134 127.208 107.137C126.789 107.186 126.51 107.219 126.37 107.236C125.297 106.937 124.485 106.254 123.934 105.186C123.431 104.112 123.121 103.087 123.006 102.109ZM127.64 102.98C127.713 103.207 127.913 103.302 128.239 103.264C128.565 103.225 128.798 103.198 128.938 103.181C130.614 102.984 132.287 102.363 133.957 101.317C135.622 100.224 137.074 98.9206 138.312 97.4063C139.59 95.8399 140.571 94.1435 141.253 92.3169C141.976 90.4383 142.233 88.6145 142.025 86.8455C140.535 87.0207 139.032 87.0795 137.515 87.022C135.992 86.9179 134.533 86.948 133.136 87.1123L133.066 87.1205L127.993 93.9473C127.706 94.3116 127.501 94.7839 127.381 95.3645C127.26 95.945 127.192 96.5667 127.176 97.2294C127.159 97.8921 127.166 98.5521 127.196 99.2093C127.226 99.8665 127.271 100.451 127.332 100.963C127.348 101.103 127.386 101.429 127.447 101.941C127.507 102.453 127.571 102.799 127.64 102.98ZM158.065 126.304C158.048 126.165 158.021 125.932 157.983 125.606C157.95 125.327 157.914 125.024 157.876 124.698C157.843 124.419 157.813 124.163 157.785 123.93C157.764 123.744 157.75 123.628 157.744 123.581L157.618 101.436C157.741 99.6756 157.861 98.2927 157.979 97.2876C158.091 96.2361 158.187 95.446 158.267 94.9175C158.387 94.337 158.53 93.9426 158.694 93.7345L161.87 76.7944C161.99 76.2139 162.246 75.3814 162.638 74.297C163.024 73.166 163.483 72.0501 164.014 70.9492C164.592 69.8429 165.235 68.894 165.945 68.1026C166.649 67.2647 167.396 66.7992 168.188 66.7061C168.513 66.6677 168.806 66.7513 169.067 66.9567C169.327 67.1621 169.546 67.4195 169.724 67.7289C169.948 68.0329 170.106 68.3684 170.196 68.7353C170.333 69.0968 170.415 69.3939 170.443 69.6267C170.695 71.7682 170.649 73.9918 170.307 76.2976C170.011 78.5979 169.526 80.8968 168.853 83.1944C168.173 85.4454 167.297 87.6252 166.224 89.7338C165.15 91.8424 163.979 93.7264 162.711 95.3859L162.107 99.28C167.357 98.5681 172.353 97.1073 177.096 94.8974C181.886 92.6821 186.422 90.119 190.705 87.2082L191.055 87.1671C191.474 87.1178 191.772 87.2479 191.95 87.5573C192.169 87.8148 192.298 88.1064 192.336 88.4323C192.38 88.8047 192.349 89.1388 192.242 89.4346C192.135 89.7303 191.862 90.022 191.424 90.3095C188.015 93.0232 184.3 95.3481 180.28 97.2841C176.26 99.2201 172.152 100.812 167.957 102.061C168.904 102.894 169.693 103.58 170.323 104.119C170.952 104.659 171.466 105.212 171.863 105.779C172.312 106.387 172.656 107.101 172.894 107.923C173.179 108.739 173.406 109.869 173.576 111.312C174.003 114.943 173.514 118.21 172.109 121.113C170.756 124.056 168.843 126.854 166.37 129.505C165.779 130.093 165.027 130.725 164.115 131.398C163.25 132.066 162.375 132.452 161.49 132.556C160.699 132.65 160.087 132.462 159.654 131.994C159.222 131.525 158.894 130.95 158.673 130.268C158.456 129.633 158.328 128.94 158.286 128.19C158.199 127.445 158.125 126.817 158.065 126.304ZM161.466 105.869C161.45 107.334 161.432 108.988 161.413 110.831C161.394 112.674 161.403 114.561 161.441 116.491C161.48 118.422 161.541 120.35 161.626 122.275C161.711 124.2 161.852 126.001 162.049 127.677C163.306 127.529 164.451 126.828 165.483 125.573C166.568 124.36 167.482 122.908 168.227 121.215C168.978 119.569 169.56 117.896 169.973 116.196C170.387 114.495 170.554 113.107 170.474 112.03C170.414 110.716 170.19 109.61 169.801 108.711C169.464 107.854 168.978 107.133 168.343 106.547C167.713 106.007 166.931 105.58 165.997 105.265C165.063 104.95 163.967 104.654 162.707 104.378L162.358 104.419C162.032 104.457 161.816 104.624 161.709 104.92C161.602 105.216 161.521 105.532 161.466 105.869ZM166.532 74.9009C166.485 74.9064 166.414 75.1035 166.318 75.4924C166.217 75.8347 166.075 76.229 165.891 76.6754C165.754 77.1163 165.62 77.5805 165.489 78.0679C165.404 78.5499 165.328 78.9127 165.263 79.1564C165.167 79.5453 165.061 80.0533 164.946 80.6804C164.826 81.2609 164.708 81.8648 164.593 82.4919C164.519 83.0669 164.44 83.5955 164.355 84.0774C164.264 84.5129 164.222 84.7538 164.227 84.8004L164.277 85.2194C164.975 83.5325 165.595 81.784 166.138 79.9739C166.674 78.1172 166.885 76.2989 166.77 74.5189L166.532 74.9009ZM192.91 122.206C192.894 122.066 192.867 121.833 192.828 121.508C192.795 121.228 192.76 120.926 192.722 120.6C192.689 120.32 192.659 120.064 192.631 119.832C192.609 119.645 192.596 119.529 192.59 119.482L192.463 97.3378C192.587 95.577 192.707 94.194 192.825 93.189C192.937 92.1375 193.033 91.3474 193.113 90.8189C193.233 90.2383 193.375 89.844 193.54 89.6359L196.715 72.6958C196.836 72.1152 197.092 71.2828 197.484 70.1983C197.87 69.0674 198.328 67.9514 198.86 66.8506C199.438 65.7443 200.081 64.7954 200.79 64.004C201.494 63.1661 202.242 62.7005 203.033 62.6074C203.359 62.5691 203.652 62.6526 203.912 62.858C204.172 63.0634 204.392 63.3208 204.57 63.6303C204.794 63.9343 204.952 64.2697 205.042 64.6367C205.179 64.9982 205.261 65.2953 205.288 65.5281C205.54 67.6696 205.495 69.8932 205.153 72.199C204.857 74.4993 204.372 76.7982 203.698 79.0958C203.019 81.3468 202.143 83.5266 201.069 85.6352C199.996 87.7438 198.825 89.6278 197.557 91.2873L196.953 95.1814C202.203 94.4695 207.199 93.0086 211.942 90.7988C216.732 88.5835 221.268 86.0204 225.551 83.1095L225.9 83.0685C226.319 83.0192 226.618 83.1493 226.796 83.4587C227.015 83.7161 227.144 84.0078 227.182 84.3337C227.226 84.7061 227.194 85.0402 227.087 85.3359C226.981 85.6317 226.708 85.9233 226.27 86.2109C222.861 88.9246 219.146 91.2495 215.126 93.1855C211.105 95.1215 206.998 96.7138 202.802 97.9624C203.75 98.7949 204.539 99.4809 205.168 100.02C205.798 100.56 206.312 101.113 206.709 101.68C207.158 102.288 207.501 103.003 207.74 103.824C208.024 104.64 208.252 105.77 208.421 107.213C208.849 110.844 208.36 114.111 206.955 117.014C205.602 119.958 203.689 122.755 201.216 125.406C200.625 125.995 199.873 126.626 198.961 127.3C198.096 127.968 197.221 128.354 196.336 128.458C195.545 128.551 194.933 128.363 194.5 127.895C194.067 127.427 193.74 126.852 193.518 126.17C193.302 125.534 193.173 124.842 193.132 124.091C193.045 123.346 192.971 122.718 192.91 122.206ZM196.312 101.77C196.296 103.235 196.278 104.889 196.259 106.732C196.239 108.575 196.249 110.462 196.287 112.393C196.326 114.323 196.387 116.251 196.472 118.176C196.557 120.101 196.698 121.902 196.895 123.578C198.152 123.43 199.297 122.729 200.329 121.475C201.413 120.262 202.328 118.809 203.073 117.117C203.823 115.471 204.405 113.798 204.819 112.097C205.232 110.396 205.4 109.008 205.32 107.932C205.26 106.617 205.035 105.511 204.647 104.613C204.31 103.756 203.824 103.034 203.188 102.448C202.559 101.909 201.777 101.481 200.843 101.166C199.909 100.851 198.812 100.556 197.553 100.279L197.204 100.32C196.878 100.358 196.661 100.525 196.555 100.821C196.448 101.117 196.367 101.433 196.312 101.77ZM201.378 70.8023C201.331 70.8077 201.26 71.0049 201.164 71.3938C201.063 71.7361 200.92 72.1304 200.737 72.5768C200.6 73.0177 200.466 73.4818 200.334 73.9693C200.249 74.4512 200.174 74.8141 200.108 75.0578C200.012 75.4467 199.907 75.9547 199.792 76.5818C199.671 77.1623 199.554 77.7661 199.439 78.3932C199.365 78.9683 199.285 79.4968 199.2 79.9788C199.11 80.4142 199.068 80.6552 199.073 80.7018L199.122 81.1208C199.821 79.4339 200.441 77.6854 200.983 75.8753C201.52 74.0186 201.731 72.2003 201.616 70.4203L201.378 70.8023ZM225.855 84.4897C225.915 84.1994 225.998 83.6942 226.102 82.974C226.247 82.2017 226.363 81.3857 226.451 80.5258C226.585 79.6605 226.678 78.8471 226.73 78.0858C226.823 77.2725 226.9 76.7207 226.96 76.4304C227.108 75.2803 227.292 74.0316 227.511 72.6842C227.776 71.3314 228.193 70.0553 228.76 68.8559C229.327 67.6565 230.104 66.6446 231.093 65.8204C232.123 64.9441 233.452 64.4101 235.082 64.2185C235.687 64.1473 236.133 64.3308 236.421 64.7689C236.749 65.155 237.037 65.5932 237.283 66.0834C237.305 66.2696 237.346 66.6188 237.406 67.1309C237.508 67.5909 237.569 67.9141 237.591 68.1003C237.827 70.1021 237.825 71.8958 237.587 73.4814C237.395 75.0615 236.957 76.5526 236.272 77.9546C235.634 79.3512 234.802 80.6999 233.775 82.0007C232.742 83.2548 231.555 84.598 230.213 86.0302C230.183 86.1754 230.141 86.4163 230.086 86.7532C230.031 87.09 230.012 87.3282 230.028 87.4679L230.045 87.6076C230.143 88.4455 230.363 89.1042 230.702 89.5834C231.042 90.0626 231.463 90.4378 231.967 90.7089C232.512 90.928 233.093 91.0485 233.709 91.0705C234.366 91.0403 235.067 90.9815 235.812 90.8939C238 90.6365 240.059 90.0875 241.99 89.2468C243.921 88.4062 245.645 87.2122 247.162 85.6651C247.367 85.4049 247.608 85.0462 247.885 84.5889C248.202 84.0795 248.52 83.5702 248.838 83.0608C249.155 82.5515 249.505 82.1092 249.885 81.7341C250.26 81.3123 250.681 81.0741 251.146 81.0193C251.612 80.9646 251.913 81.1179 252.05 81.4794C252.187 81.8409 252.277 82.2079 252.321 82.5803C252.442 83.6045 252.231 84.6205 251.688 85.6282C251.187 86.5839 250.468 87.4944 249.532 88.3598C248.636 89.1731 247.57 89.9357 246.332 90.6477C245.141 91.3542 243.938 91.9676 242.725 92.4878C241.512 93.0081 240.335 93.4298 239.193 93.7529C238.097 94.0706 237.154 94.2759 236.362 94.369C233.895 94.6592 231.777 94.5072 230.008 93.9129C228.28 93.2666 226.968 91.7453 226.073 89.3491L225.855 84.4897ZM234.223 69.5584C233.39 70.5059 232.736 71.3617 232.259 72.1257C231.824 72.8377 231.487 73.5853 231.249 74.3685C231.052 75.0997 230.886 75.8979 230.752 76.7633C230.664 77.6231 230.57 78.6254 230.468 79.7701C231.271 78.9677 231.91 78.1846 232.387 77.4205C232.91 76.651 233.314 75.872 233.598 75.0833C233.883 74.2946 234.069 73.4703 234.157 72.6105C234.239 71.704 234.261 70.6867 234.223 69.5584ZM251.693 81.4507C251.753 81.1604 251.835 80.6551 251.939 79.9349C252.084 79.1627 252.201 78.3466 252.288 77.4867C252.423 76.6214 252.516 75.8081 252.568 75.0468C252.661 74.2335 252.738 73.6817 252.798 73.3914C252.946 72.2412 253.129 70.9925 253.348 69.6452C253.614 68.2924 254.03 67.0163 254.597 65.8168C255.164 64.6174 255.942 63.6055 256.93 62.7813C257.96 61.905 259.29 61.371 260.919 61.1794C261.524 61.1082 261.971 61.2917 262.258 61.7299C262.587 62.116 262.874 62.5541 263.121 63.0443C263.143 63.2306 263.184 63.5797 263.244 64.0918C263.345 64.5519 263.407 64.875 263.429 65.0612C263.664 67.0631 263.663 68.8567 263.425 70.4423C263.233 72.0224 262.795 73.5135 262.11 74.9156C261.472 76.3122 260.639 77.6608 259.612 78.9616C258.58 80.2158 257.393 81.559 256.051 82.9912C256.021 83.1363 255.978 83.3773 255.924 83.7141C255.869 84.0509 255.85 84.2892 255.866 84.4288L255.882 84.5685C255.981 85.4065 256.2 86.0651 256.54 86.5443C256.879 87.0236 257.301 87.3988 257.805 87.6699C258.35 87.889 258.93 88.0095 259.546 88.0314C260.204 88.0013 260.905 87.9424 261.65 87.8548C263.838 87.5975 265.897 87.0484 267.828 86.2078C269.758 85.3671 271.482 84.1732 272.999 82.626C273.205 82.3658 273.446 82.0071 273.722 81.5498C274.04 81.0404 274.358 80.5311 274.675 80.0218C274.993 79.5124 275.342 79.0701 275.723 78.695C276.098 78.2733 276.518 78.035 276.984 77.9803C277.449 77.9255 277.751 78.0789 277.888 78.4404C278.024 78.8018 278.115 79.1688 278.159 79.5412C278.279 80.5654 278.068 81.5814 277.526 82.5891C277.025 83.5448 276.306 84.4554 275.369 85.3207C274.474 86.134 273.407 86.8966 272.169 87.6086C270.978 88.3151 269.776 88.9285 268.563 89.4488C267.35 89.9691 266.172 90.3907 265.03 90.7139C263.935 91.0315 262.991 91.2369 262.2 91.3299C259.733 91.6202 257.614 91.4681 255.845 90.8738C254.117 90.2275 252.806 88.7063 251.91 86.3101L251.693 81.4507ZM260.06 66.5194C259.228 67.4669 258.573 68.3226 258.097 69.0866C257.661 69.7986 257.325 70.5462 257.086 71.3294C256.889 72.0606 256.723 72.8588 256.589 73.7242C256.502 74.5841 256.407 75.5864 256.306 76.731C257.108 75.9287 257.748 75.1455 258.224 74.3815C258.747 73.612 259.151 72.8329 259.436 72.0442C259.721 71.2555 259.907 70.4313 259.995 69.5714C260.077 68.665 260.099 67.6476 260.06 66.5194Z" fill="#444A4A"/>
<path d="M90.5863 294.036L80.8066 302.18L80.4807 302.218C80.1187 302.261 79.7459 302.213 79.3625 302.074C79.0154 301.931 78.8162 301.643 78.7651 301.208C78.731 300.919 78.7736 300.657 78.8929 300.422C79.0442 300.148 79.2359 299.905 79.468 299.694C79.7321 299.443 80.2188 299.055 80.9281 298.531C81.6374 298.007 82.3786 297.443 83.1518 296.838C83.9207 296.197 84.6598 295.614 85.3691 295.09C86.1146 294.562 86.6215 294.19 86.8899 293.975C87.0177 293.814 87.2158 293.625 87.4841 293.41C87.7482 293.159 87.9783 292.93 88.1742 292.723C88.4021 292.476 88.5981 292.269 88.7621 292.103C88.9261 291.937 89.006 291.836 89.0017 291.8L83.823 283.819C83.6122 283.587 83.4801 283.4 83.4269 283.26C83.4056 283.079 83.3779 282.843 83.3438 282.554C83.2161 281.467 83.6772 280.862 84.7273 280.739C84.8721 280.722 85.2108 280.792 85.7432 280.95C86.3077 281.067 86.9914 281.262 87.7943 281.535C88.593 281.771 89.4322 282.039 90.3119 282.34C91.1915 282.64 91.9945 282.913 92.7208 283.158C93.4471 283.403 94.0605 283.624 94.561 283.822C95.0573 283.984 95.3054 284.065 95.3054 284.065L99.5516 278.5C99.6091 278.052 99.8551 277.491 100.29 276.816C100.76 276.137 101.245 275.419 101.743 274.663C102.242 273.907 102.668 273.159 103.021 272.42C103.371 271.645 103.511 270.967 103.443 270.388L103.424 270.225L98.6478 261.921C98.1878 261.131 97.8481 260.272 97.6287 259.343C97.4413 258.374 97.2922 257.419 97.1815 256.477C97.0878 255.681 97.1208 254.869 97.2806 254.043C97.4361 253.18 97.7109 252.395 98.1049 251.688C98.5352 250.977 99.0709 250.382 99.712 249.902C100.349 249.387 101.138 249.074 102.079 248.963C103.057 248.848 103.888 249.044 104.571 249.551C105.287 250.018 105.875 250.646 106.335 251.436C106.831 252.222 107.207 253.077 107.463 254.002C107.714 254.89 107.884 255.714 107.974 256.474C108.229 258.647 108.221 260.759 107.948 262.81C107.707 264.82 107.292 266.907 106.702 269.069L106.791 269.829C107.807 271.288 108.848 272.799 109.913 274.363C110.978 275.926 111.96 277.572 112.861 279.302C113.758 280.995 114.53 282.722 115.178 284.481C115.821 286.204 116.249 287.971 116.462 289.781C116.628 291.193 116.548 292.543 116.222 293.829C115.928 295.075 115.418 296.2 114.692 297.203C113.965 298.206 113.034 299.031 111.899 299.679C110.8 300.322 109.526 300.729 108.078 300.899C106.449 301.091 104.864 301.039 103.324 300.743C101.816 300.406 100.327 299.92 98.8578 299.286C97.4201 298.61 96.0239 297.82 94.6693 296.915C93.3509 296.005 92.0986 295.033 90.9122 293.998L90.5863 294.036ZM93.0848 291.87C93.089 291.906 93.1945 292.022 93.4011 292.218C93.6439 292.41 93.909 292.636 94.1966 292.896C94.5161 293.115 94.8377 293.353 95.1614 293.608C95.4852 293.864 95.7663 294.069 96.0049 294.225C96.1263 294.321 96.3265 294.462 96.6055 294.65C96.9164 294.797 97.2136 294.982 97.4968 295.206C97.8121 295.389 98.0911 295.576 98.3339 295.768C98.6086 295.919 98.7844 296.009 98.861 296.036C99.0911 296.119 99.4382 296.262 99.9025 296.465C100.367 296.667 100.831 296.869 101.295 297.072C101.76 297.274 102.204 297.46 102.628 297.631C103.052 297.801 103.302 297.9 103.379 297.928C104.254 298.192 105.042 298.338 105.743 298.366C106.475 298.353 107.204 298.304 107.928 298.219C109.014 298.091 109.914 297.783 110.628 297.295C111.373 296.767 111.959 296.129 112.385 295.382C112.807 294.598 113.073 293.741 113.184 292.81C113.326 291.839 113.342 290.882 113.232 289.941C113.112 288.927 112.898 287.888 112.59 286.823C112.317 285.753 111.942 284.751 111.465 283.816L105.405 273.021L101.823 279.554L93.0592 291.653L93.0848 291.87ZM88.0051 285.199C88.0136 285.271 88.0488 285.414 88.1105 285.627C88.2042 285.8 88.2735 285.92 88.3182 285.988C88.4928 286.225 88.7143 286.547 88.9827 286.956C89.2873 287.361 89.5716 287.75 89.8357 288.122C90.1317 288.455 90.3713 288.775 90.5545 289.084C90.7696 289.352 90.8953 289.485 90.9315 289.48L91.1488 289.455C91.2574 289.442 91.4576 289.272 91.7494 288.944C92.037 288.579 92.3426 288.213 92.6664 287.845C92.9859 287.44 93.2734 287.076 93.529 286.752C93.7803 286.392 93.922 286.192 93.9539 286.151L93.6504 285.912L88.7655 285.11L88.0051 285.199ZM100.054 256.084C100.292 258.112 100.817 259.923 101.629 261.516C102.436 263.073 103.415 264.683 104.565 266.347C104.733 266.217 104.87 265.98 104.977 265.637C105.079 265.258 105.161 264.863 105.223 264.452C105.28 264.005 105.324 263.596 105.354 263.225C105.384 262.855 105.412 262.631 105.44 262.554C105.432 262.482 105.428 262.299 105.431 262.005C105.469 261.707 105.485 261.374 105.478 261.008C105.468 260.605 105.459 260.221 105.453 259.855C105.483 259.484 105.505 259.206 105.52 259.021L105.501 258.858C105.484 258.713 105.413 258.262 105.287 257.506C105.197 256.746 105.047 255.938 104.836 255.081C104.621 254.189 104.329 253.416 103.958 252.762C103.583 252.072 103.106 251.761 102.527 251.829C101.947 251.897 101.471 252.063 101.099 252.327C100.726 252.591 100.452 252.917 100.277 253.305C100.139 253.688 100.043 254.122 99.9898 254.605C99.9728 255.084 99.9941 255.578 100.054 256.084ZM119.97 298.069C119.957 297.96 119.925 297.689 119.874 297.254C119.823 296.82 119.789 296.53 119.771 296.385C118.9 294.285 118.559 292.159 118.746 290.008C118.97 287.853 119.563 285.874 120.526 284.072C121.521 282.23 122.857 280.641 124.535 279.305C126.246 277.93 128.172 276.987 130.315 276.478L131.293 276.363C132.089 276.269 132.762 276.374 133.312 276.676C133.893 276.938 134.361 277.324 134.714 277.833C135.104 278.338 135.394 278.928 135.583 279.603C135.809 280.274 135.962 280.953 136.043 281.641C136.154 282.583 136.154 283.519 136.043 284.449C135.964 285.34 135.852 286.252 135.705 287.187C135.594 288.118 135.483 289.049 135.372 289.98C135.293 290.87 135.311 291.804 135.426 292.782L135.465 293.108C135.51 293.176 135.571 293.389 135.65 293.747C135.761 294.064 135.839 294.257 135.883 294.325C135.956 294.316 136.139 294.313 136.433 294.315C136.723 294.281 136.904 294.26 136.976 294.251C137.338 294.209 137.682 294.168 138.008 294.13C138.366 294.051 138.717 293.918 139.062 293.731L148.82 287.737C148.856 287.733 148.91 287.727 148.982 287.718C149.087 287.669 149.157 287.643 149.193 287.638C149.555 287.596 149.858 287.67 150.101 287.862C150.38 288.049 150.54 288.324 150.583 288.686C150.604 288.867 150.608 289.05 150.593 289.236C150.61 289.381 150.536 289.536 150.372 289.702C150.14 289.913 149.699 290.222 149.049 290.629C148.436 291.031 147.773 291.476 147.059 291.964C146.346 292.452 145.666 292.917 145.021 293.36C144.412 293.799 143.968 294.09 143.692 294.232C143.219 294.582 142.689 294.919 142.104 295.245C141.514 295.535 140.906 295.827 140.279 296.12C139.653 296.414 139.023 296.672 138.388 296.894C137.785 297.075 137.23 297.195 136.723 297.255C135.927 297.348 135.26 297.298 134.724 297.104C134.183 296.874 133.76 296.557 133.455 296.152C133.146 295.711 132.901 295.189 132.72 294.587C132.571 293.943 132.493 293.274 132.484 292.577C131.828 293.242 131.122 293.949 130.366 294.698C129.61 295.448 128.811 296.148 127.97 296.797C127.128 297.447 126.26 298.026 125.366 298.535C124.471 299.044 123.535 299.356 122.557 299.471C122.014 299.535 121.51 299.466 121.046 299.264C120.578 299.025 120.219 298.627 119.97 298.069ZM122.768 296.583C123.601 296.485 124.497 296.141 125.455 295.551C126.409 294.925 127.333 294.193 128.225 293.353C129.118 292.514 129.915 291.649 130.618 290.759C131.317 289.833 131.845 289.018 132.203 288.315C132.111 287.225 132.135 286.176 132.273 285.168C132.444 284.12 132.467 283.071 132.344 282.021C132.335 281.949 132.304 281.842 132.251 281.702C132.234 281.557 132.221 281.448 132.213 281.376C131.695 281.033 131.269 280.844 130.935 280.81C130.6 280.776 130.162 280.791 129.618 280.855C129.546 280.864 129.383 280.883 129.13 280.913C128.912 280.938 128.77 280.973 128.702 281.018C128.506 281.225 128.184 281.611 127.737 282.178C127.285 282.708 126.804 283.297 126.293 283.944C125.818 284.588 125.356 285.193 124.909 285.759C124.498 286.321 124.213 286.704 124.053 286.906C124.017 286.91 123.953 286.991 123.861 287.149C123.765 287.27 123.656 287.43 123.532 287.628C123.445 287.822 123.357 288.016 123.27 288.21C123.215 288.363 123.175 288.496 123.152 288.609L122.596 295.117L122.768 296.583ZM149.446 294.932C149.448 294.014 149.492 293.146 149.58 292.328C149.663 291.474 149.766 290.636 149.89 289.814C150.013 288.992 150.153 288.149 150.308 287.287C150.496 286.384 150.689 285.37 150.887 284.245L150.855 283.974C149.504 284.977 148.521 285.515 147.906 285.587C147.327 285.655 147.011 285.472 146.96 285.038C146.873 284.607 146.986 284.007 147.299 283.236C147.648 282.46 148.076 281.731 148.583 281.047C149.126 280.359 149.684 279.798 150.257 279.364C150.867 278.925 151.367 278.811 151.759 279.022C152.194 278.971 152.546 279.003 152.817 279.118C153.123 279.228 153.457 279.409 153.817 279.661C154.573 278.911 155.289 278.294 155.967 277.811C156.644 277.328 157.49 277.026 158.503 276.907C160.097 276.72 161.334 276.941 162.216 277.572C163.134 278.198 163.868 279.286 164.417 280.837C164.96 280.149 165.455 279.522 165.903 278.955C166.346 278.352 166.836 277.836 167.372 277.406C167.941 276.935 168.559 276.568 169.226 276.307C169.888 276.008 170.654 275.808 171.523 275.706C172.247 275.621 172.985 275.809 173.737 276.272C174.489 276.734 175.048 277.274 175.414 277.891C175.431 278.036 175.469 278.362 175.529 278.869C175.589 279.376 175.629 279.72 175.65 279.901C175.795 281.132 175.791 282.344 175.637 283.537C175.48 284.693 175.471 285.869 175.612 287.064C175.671 287.571 175.787 288.089 175.96 288.62C176.164 289.11 176.593 289.316 177.244 289.24C178.113 289.137 178.871 288.865 179.516 288.422C180.197 287.974 180.798 287.463 181.318 286.888C181.87 286.273 182.345 285.63 182.743 284.959C183.177 284.283 183.564 283.669 183.903 283.115C184.273 282.521 184.618 282.021 184.938 281.617C185.257 281.212 185.598 280.988 185.96 280.946C186.214 280.916 186.498 280.993 186.813 281.176C187.16 281.319 187.351 281.535 187.385 281.825C187.389 281.861 187.378 281.917 187.35 281.994C187.358 282.066 187.365 282.121 187.369 282.157C187.139 283.322 186.74 284.452 186.171 285.547C185.602 286.641 184.912 287.64 184.101 288.543C183.285 289.41 182.343 290.145 181.276 290.748C180.241 291.31 179.108 291.663 177.877 291.808C176.718 291.945 175.724 291.915 174.893 291.719C174.058 291.487 173.357 290.835 172.791 289.763C172.778 289.655 172.732 289.422 172.653 289.064C172.606 288.665 172.579 288.43 172.57 288.358C172.408 286.982 172.38 285.645 172.484 284.348C172.625 283.047 172.618 281.744 172.465 280.441C172.452 280.332 172.406 280.099 172.328 279.741C172.285 279.379 172.257 279.144 172.245 279.035C172.078 278.871 171.832 278.808 171.507 278.847C171.217 278.881 170.945 278.913 170.692 278.942C169.932 279.032 169.239 279.389 168.615 280.013C167.991 280.637 167.438 281.399 166.957 282.3C166.476 283.201 166.061 284.204 165.714 285.31C165.399 286.375 165.14 287.451 164.938 288.54C164.731 289.592 164.572 290.583 164.462 291.514C164.383 292.404 164.359 293.141 164.391 293.725L163.858 294.338L162.011 294.555C161.685 294.594 161.485 294.452 161.41 294.131C161.368 293.768 161.336 293.497 161.315 293.316C161.212 292.447 161.164 291.571 161.171 290.69C161.209 289.767 161.25 288.863 161.292 287.977C161.367 287.051 161.423 286.126 161.462 285.204C161.5 284.282 161.486 283.384 161.42 282.511C161.35 282.225 161.278 281.922 161.203 281.6C161.124 281.242 161.013 280.925 160.871 280.648C160.728 280.371 160.537 280.155 160.299 280C160.056 279.808 159.736 279.735 159.337 279.782C158.758 279.85 158.209 280.025 157.692 280.306C157.174 280.587 156.701 280.937 156.273 281.354C155.877 281.731 155.528 282.194 155.225 282.744C154.955 283.253 154.781 283.806 154.705 284.402L152.685 295.322L152.26 295.923C152.26 295.923 152.152 295.935 151.934 295.961C151.721 296.023 151.561 296.06 151.452 296.073C151.054 296.12 150.633 296.132 150.19 296.111C149.779 296.049 149.539 295.729 149.471 295.149L149.446 294.932ZM186.276 288.783C186.127 287.516 186.127 286.268 186.276 285.039C186.425 283.81 186.685 282.586 187.056 281.368C187.237 280.098 187.465 278.915 187.74 277.818C188.01 276.685 188.3 275.715 188.609 274.908C188.95 274.06 189.312 273.393 189.695 272.908C190.074 272.386 190.499 272.097 190.97 272.042C191.441 271.987 191.802 272.091 192.053 272.355C192.336 272.579 192.506 272.926 192.561 273.397L192.599 273.722L190.685 280.39C190.658 280.467 190.584 280.622 190.465 280.857C190.341 281.055 190.284 281.19 190.292 281.262L190.318 281.48C190.267 281.669 190.192 281.972 190.094 282.387C190.033 282.798 189.957 283.247 189.867 283.735C189.774 284.187 189.678 284.62 189.58 285.035C189.518 285.447 189.478 285.727 189.458 285.876C189.407 286.065 189.387 286.361 189.398 286.764C189.408 287.166 189.42 287.422 189.433 287.531C189.441 287.603 189.476 287.746 189.538 287.959C189.596 288.136 189.665 288.256 189.746 288.32C191.058 287.615 192.429 286.628 193.858 285.358C195.319 284.048 196.693 282.62 197.979 281.074C199.266 279.528 200.383 277.946 201.331 276.33C202.311 274.673 202.989 273.106 203.366 271.63C203.434 271.585 203.609 271.51 203.89 271.403C204.171 271.297 204.348 271.239 204.42 271.231C204.457 271.226 204.493 271.222 204.529 271.218C204.601 271.209 204.656 271.203 204.692 271.199C205.054 271.156 205.381 271.283 205.673 271.579C206.001 271.871 206.184 272.18 206.222 272.506C206.227 272.542 206.217 272.616 206.194 272.729C206.206 272.838 206.215 272.91 206.219 272.946C205.75 274.58 205.364 276.131 205.059 277.598C204.755 279.066 204.698 280.614 204.89 282.243C204.971 282.931 205.055 283.491 205.142 283.921C205.261 284.311 205.492 284.871 205.835 285.601C205.893 285.778 205.976 285.86 206.085 285.847C206.229 285.83 206.356 285.815 206.465 285.803C207.551 285.675 208.588 285.131 209.577 284.17C210.565 283.21 211.423 282.081 212.152 280.784C212.912 279.446 213.485 278.075 213.871 276.672C214.256 275.268 214.389 274.06 214.27 273.046C214.206 272.503 214.092 272.002 213.928 271.544C213.796 271.046 213.7 270.543 213.641 270.036C213.585 269.565 213.663 269.134 213.874 268.742C214.085 268.35 214.426 268.127 214.896 268.071C215.222 268.033 215.543 268.105 215.858 268.289C216.169 268.436 216.466 268.621 216.749 268.844C217.069 269.064 217.386 269.265 217.702 269.448C218.017 269.632 218.362 269.756 218.737 269.822C219.606 269.72 220.276 269.641 220.746 269.586C221.253 269.526 221.633 269.481 221.887 269.452C222.177 269.418 222.41 269.372 222.587 269.314C222.759 269.221 222.966 269.104 223.206 268.966C223.443 268.791 223.765 268.57 224.174 268.302C224.62 268.029 225.201 267.667 225.919 267.215C225.951 267.175 226.021 267.148 226.13 267.135C226.238 267.123 226.311 267.114 226.347 267.11C226.673 267.072 226.975 267.146 227.254 267.334C227.533 267.521 227.694 267.796 227.737 268.158C227.784 268.556 227.713 268.895 227.526 269.174C227.37 269.412 227.158 269.639 226.89 269.854C226.617 270.033 226.309 270.216 225.963 270.404C225.65 270.551 225.353 270.677 225.072 270.784C224.278 271.208 223.654 271.52 223.2 271.72C222.778 271.88 222.445 272.011 222.2 272.113C221.987 272.175 221.81 272.232 221.67 272.285C221.525 272.303 221.307 272.328 221.018 272.362C220.764 272.392 220.404 272.453 219.938 272.544C219.503 272.595 218.874 272.706 218.05 272.876C217.977 272.885 217.873 272.934 217.737 273.023C217.637 273.109 217.57 273.171 217.539 273.212C217.513 274.867 217.202 276.592 216.605 278.388C216.041 280.143 215.226 281.799 214.161 283.356C213.092 284.876 211.794 286.167 210.267 287.228C208.776 288.284 207.161 288.914 205.423 289.119C205.061 289.161 204.7 289.057 204.34 288.806C204.012 288.514 203.698 288.184 203.398 287.815C203.134 287.443 202.906 287.066 202.714 286.684C202.518 286.267 202.389 285.952 202.327 285.739C202.274 285.598 202.188 285.333 202.069 284.943C201.986 284.549 201.88 284.121 201.752 283.659C201.661 283.192 201.558 282.782 201.443 282.429C201.359 282.035 201.307 281.747 201.286 281.566C200.715 282.331 199.962 283.264 199.027 284.365C198.088 285.43 197.056 286.487 195.931 287.537C194.802 288.551 193.643 289.458 192.452 290.259C191.293 291.019 190.207 291.459 189.193 291.579C188.252 291.689 187.543 291.442 187.069 290.837C186.63 290.228 186.366 289.543 186.276 288.783ZM226.813 301.03C226.536 298.676 226.805 296.442 227.621 294.327C228.405 292.253 229.498 290.307 230.899 288.49C232.341 286.705 233.965 285.064 235.771 283.567C237.614 282.065 239.421 280.733 241.193 279.57L242.174 274.334C242.019 274.572 241.699 274.977 241.216 275.548C240.768 276.114 240.289 276.721 239.778 277.369C239.263 277.98 238.763 278.571 238.28 279.142C237.792 279.677 237.45 280.047 237.254 280.254C236.862 280.667 236.386 281.145 235.826 281.688C235.266 282.231 234.649 282.763 233.976 283.283C233.335 283.762 232.669 284.189 231.979 284.564C231.285 284.902 230.648 285.106 230.069 285.174C229.272 285.268 228.726 285.148 228.43 284.816C228.165 284.443 227.991 283.895 227.906 283.171C227.838 282.591 227.803 281.99 227.803 281.365C227.84 280.737 227.749 280.124 227.532 279.525L228.973 273.519C229.261 273.155 229.509 272.612 229.717 271.89C229.962 271.163 230.189 270.439 230.398 269.717C230.643 268.991 230.899 268.355 231.165 267.81C231.467 267.26 231.818 266.962 232.216 266.915C232.65 266.864 233.027 266.948 233.347 267.168C233.703 267.383 233.908 267.726 233.964 268.196C234.006 268.558 233.99 268.891 233.916 269.193C233.873 269.455 233.787 269.814 233.657 270.27C233.301 271.303 232.939 272.281 232.57 273.206C232.238 274.126 231.924 275.044 231.628 275.96C231.368 276.871 231.167 277.813 231.024 278.784C230.913 279.715 230.924 280.741 231.056 281.864L231.273 281.838C231.273 281.838 231.375 281.771 231.58 281.637C231.78 281.467 231.998 281.294 232.235 281.12C232.503 280.904 232.772 280.689 233.04 280.474C233.308 280.259 233.543 280.066 233.743 279.896C235.581 278.358 237.158 276.631 238.475 274.714C239.787 272.761 241.074 270.756 242.337 268.698C242.457 268.464 242.564 268.286 242.66 268.165C242.756 268.043 242.838 267.96 242.906 267.915C242.97 267.834 243.056 267.788 243.165 267.775C243.273 267.762 243.436 267.743 243.654 267.717C244.161 267.658 244.572 267.719 244.887 267.903C245.234 268.045 245.484 268.456 245.638 269.136C245.729 269.602 245.761 270.186 245.733 270.887C245.701 271.551 245.633 272.22 245.529 272.893C245.424 273.566 245.302 274.241 245.161 274.919C245.053 275.555 244.947 276.063 244.845 276.443L244.941 277.257C245.009 277.213 245.166 277.139 245.411 277.037C245.692 276.93 245.884 276.853 245.989 276.804C246.202 276.742 246.776 276.472 247.711 275.995C248.646 275.518 249.651 275.015 250.727 274.484C251.834 273.913 252.856 273.39 253.791 272.912C254.726 272.435 255.314 272.128 255.554 271.989L255.663 271.976C255.916 271.947 256.144 272.012 256.347 272.171C256.585 272.327 256.719 272.531 256.749 272.785C256.779 273.038 256.714 273.266 256.554 273.468C256.431 273.667 256.269 273.851 256.069 274.021C255.864 274.155 255.642 274.292 255.401 274.43C255.16 274.569 254.954 274.685 254.781 274.778C254.545 274.953 254.204 275.177 253.759 275.449C253.309 275.686 252.792 275.967 252.206 276.293C251.652 276.578 251.067 276.904 250.449 277.27C249.831 277.637 249.229 277.983 248.644 278.308C247.232 279.099 245.697 279.94 244.04 280.832L241.381 299.426C241.266 300.321 240.956 301.275 240.451 302.289C239.983 303.299 239.397 304.249 238.694 305.139C237.991 306.029 237.179 306.767 236.256 307.353C235.375 307.97 234.445 308.337 233.467 308.452C232.453 308.571 231.553 308.402 230.764 307.944C229.981 307.522 229.304 306.922 228.736 306.145C228.171 305.404 227.743 304.573 227.451 303.653C227.123 302.737 226.911 301.863 226.813 301.03ZM229.745 300.685C229.801 301.156 229.899 301.676 230.039 302.247C230.216 302.814 230.463 303.354 230.781 303.867C231.098 304.38 231.459 304.797 231.864 305.116C232.304 305.432 232.833 305.553 233.448 305.481C234.245 305.387 234.939 305.048 235.531 304.465C236.164 303.913 236.691 303.245 237.113 302.461C237.575 301.71 237.94 300.914 238.209 300.075C238.477 299.236 238.684 298.496 238.829 297.855C238.886 297.407 238.977 296.773 239.1 295.95C239.228 295.164 239.338 294.381 239.429 293.599C239.557 292.813 239.657 292.104 239.73 291.471C239.806 290.875 239.838 290.522 239.826 290.414L239.8 290.196L240.57 283.168C239.177 283.809 237.786 284.78 236.398 286.081C235.045 287.378 233.841 288.842 232.784 290.471C231.728 292.1 230.901 293.813 230.305 295.608C229.744 297.4 229.558 299.092 229.745 300.685ZM254.896 273.884C254.896 273.884 254.912 273.863 254.944 273.823C255.008 273.742 255.056 273.681 255.088 273.641C255.122 273.307 255.201 272.728 255.324 271.906C255.448 271.084 255.583 270.205 255.73 269.27C255.873 268.299 256.006 267.402 256.13 266.58C256.289 265.754 256.407 265.189 256.481 264.887C256.5 264.738 256.573 264.417 256.698 263.925C256.856 263.393 257.027 262.822 257.213 262.213C257.398 261.604 257.583 260.995 257.769 260.385C257.954 259.776 258.084 259.32 258.159 259.018C258.352 258.481 258.654 257.767 259.063 256.874C259.508 255.978 260.014 255.129 260.58 254.328C261.179 253.487 261.808 252.752 262.469 252.124C263.125 251.459 263.76 251.091 264.376 251.018C264.702 250.98 264.966 251.041 265.168 251.2C265.407 251.356 265.577 251.556 265.679 251.801C265.814 252.005 265.916 252.25 265.986 252.536C266.056 252.821 266.104 253.073 266.13 253.29C266.351 255.173 266.301 257.087 265.98 259.034C265.69 260.94 265.193 262.798 264.487 264.606C263.782 266.414 262.886 268.153 261.797 269.823C260.741 271.453 259.595 272.946 258.359 274.302C258.336 274.415 258.307 274.639 258.273 274.973C258.275 275.303 258.267 275.543 258.248 275.692L258.26 275.801C258.346 276.525 258.595 277.083 259.008 277.475C259.457 277.863 259.966 278.133 260.535 278.286C261.099 278.404 261.712 278.46 262.372 278.456C263.069 278.447 263.725 278.407 264.34 278.334C264.666 278.296 265.118 278.078 265.695 277.68C266.308 277.277 266.917 276.838 267.522 276.363C268.159 275.848 268.784 275.389 269.398 274.986C270.011 274.584 270.481 274.363 270.807 274.325C271.133 274.287 271.399 274.366 271.605 274.561C271.812 274.757 271.934 275.018 271.973 275.344C272.037 275.887 271.688 276.516 270.928 277.229C270.168 277.943 269.276 278.635 268.254 279.306C267.227 279.94 266.228 280.498 265.257 280.98C264.322 281.457 263.692 281.715 263.366 281.753C262.305 282.098 261.293 282.235 260.331 282.165C259.364 282.058 258.508 281.81 257.765 281.421C257.017 280.995 256.368 280.465 255.816 279.833C255.297 279.16 254.938 278.449 254.74 277.702L254.896 273.884ZM263.258 256.491C262.932 256.529 262.584 256.846 262.213 257.44C261.874 257.994 261.546 258.638 261.229 259.373C260.911 260.108 260.628 260.82 260.379 261.51C260.162 262.16 260.048 262.595 260.037 262.817C259.958 263.083 259.844 263.519 259.695 264.123C259.546 264.728 259.401 265.369 259.261 266.047C259.116 266.688 258.969 267.311 258.82 267.916C258.707 268.516 258.629 268.948 258.586 269.21L258.858 269.178C258.858 269.178 258.952 269.038 259.139 268.759C259.322 268.444 259.519 268.09 259.73 267.699C259.977 267.302 260.224 266.906 260.471 266.51C260.75 266.073 260.948 265.72 261.063 265.449C261.182 265.215 261.343 264.866 261.545 264.401C261.743 263.901 261.872 263.592 261.932 263.475C262.03 263.06 262.167 262.511 262.344 261.83C262.516 261.112 262.673 260.414 262.813 259.737C262.954 259.06 263.069 258.477 263.159 257.989C263.28 257.461 263.336 257.161 263.328 257.088L263.258 256.491ZM270.698 273.402C270.745 273.176 270.809 272.783 270.89 272.223C271.003 271.622 271.093 270.987 271.161 270.319C271.266 269.646 271.338 269.013 271.379 268.421C271.451 267.788 271.511 267.359 271.558 267.133C271.673 266.239 271.815 265.268 271.986 264.22C272.192 263.167 272.516 262.175 272.957 261.242C273.398 260.309 274.003 259.522 274.772 258.881C275.573 258.2 276.607 257.784 277.874 257.635C278.345 257.58 278.692 257.722 278.916 258.063C279.171 258.364 279.395 258.704 279.587 259.086C279.604 259.231 279.636 259.502 279.682 259.9C279.761 260.258 279.809 260.51 279.826 260.654C280.009 262.211 280.008 263.606 279.823 264.84C279.674 266.069 279.333 267.228 278.8 268.319C278.304 269.405 277.657 270.454 276.858 271.466C276.055 272.441 275.132 273.486 274.088 274.6C274.064 274.713 274.031 274.9 273.989 275.162C273.946 275.424 273.931 275.609 273.944 275.718L273.957 275.827C274.033 276.478 274.204 276.991 274.468 277.363C274.732 277.736 275.06 278.028 275.452 278.239C275.876 278.409 276.327 278.503 276.807 278.52C277.318 278.497 277.863 278.451 278.442 278.383C280.144 278.183 281.746 277.756 283.247 277.102C284.749 276.448 286.09 275.519 287.27 274.316C287.43 274.114 287.617 273.834 287.832 273.479C288.079 273.083 288.326 272.686 288.573 272.29C288.821 271.894 289.092 271.55 289.388 271.258C289.68 270.93 290.007 270.745 290.369 270.703C290.731 270.66 290.965 270.779 291.072 271.06C291.178 271.342 291.249 271.627 291.283 271.917C291.376 272.713 291.212 273.503 290.791 274.287C290.401 275.031 289.842 275.739 289.113 276.412C288.417 277.044 287.587 277.637 286.624 278.191C285.698 278.741 284.763 279.218 283.819 279.622C282.876 280.027 281.96 280.355 281.072 280.606C280.22 280.853 279.486 281.013 278.87 281.086C276.951 281.311 275.304 281.193 273.928 280.731C272.584 280.228 271.564 279.045 270.867 277.181L270.698 273.402ZM277.206 261.788C276.559 262.525 276.05 263.191 275.679 263.785C275.34 264.339 275.078 264.92 274.893 265.53C274.74 266.098 274.611 266.719 274.507 267.392C274.438 268.061 274.365 268.841 274.286 269.731C274.91 269.107 275.407 268.498 275.778 267.903C276.185 267.305 276.499 266.699 276.721 266.086C276.942 265.472 277.087 264.831 277.155 264.162C277.219 263.457 277.236 262.666 277.206 261.788Z" fill="#444A4A"/>
</svg>
